<svg width="130" height="336" viewBox="0 0 130 336" fill="none" xmlns="http://www.w3.org/2000/svg">
    <path opacity="0.25" d="M4.7223e-07 2.73977C7.68209 0.982742 15.6619 -2.77847e-06 23.88 -4.23638e-06C82.4782 -1.46319e-05 130 47.5291 130 106.166L130 191.933C130 214.626 111.628 233 88.9395 233C66.2506 233 47.8493 214.626 47.8493 191.933L47.8493 83.0569C47.8493 48.363 28.4952 18.1659 4.7223e-07 2.73977Z" fill="#D51C23"/>
    <path opacity="0.25" d="M89.0148 254C66.3378 254 48 272.361 48 295C48 317.639 66.3675 336 89.0149 336C111.662 336 130 317.639 130 295C130 272.361 111.662 254 89.0148 254Z" fill="#D51C23"/>
    </svg>
    