<svg width="130" height="336" viewBox="0 0 130 336" fill="none" xmlns="http://www.w3.org/2000/svg">
    <path opacity="0.25" d="M130 333.26C122.318 335.017 114.338 336 106.12 336C47.5218 336 1.12218e-05 288.471 6.24122e-06 229.834L-1.04366e-06 144.067C-2.97111e-06 121.374 18.3715 103 41.0605 103C63.7494 103 82.1507 121.374 82.1507 144.067L82.1507 252.943C82.1507 287.637 101.505 317.834 130 333.26Z" fill="#D51C23"/>
    <path opacity="0.25" d="M40.9852 82C63.6622 82 82 63.6391 82 41C82 18.3609 63.6325 -5.97668e-06 40.9851 -3.93888e-06C18.3378 -1.90107e-06 2.22401e-06 18.3609 4.14693e-06 41C6.06986e-06 63.6391 18.3378 82 40.9852 82Z" fill="#D51C23"/>
    </svg>
    