<svg width="40" height="40" viewBox="0 0 36 35" fill="none" xmlns="http://www.w3.org/2000/svg">
    <g clip-path="url(#clip0_1059_1163)">
        <path
            d="M20.8767 17.6434C20.8767 16.2654 20.7946 14.9421 20.9012 13.6329C20.9968 12.4462 22.001 11.6628 23.2945 11.6057C24.1768 11.5667 25.0634 11.5982 25.9829 11.5982V7.22745C25.4263 7.15872 24.8493 7.07343 24.269 7.01877C22.8673 6.8871 21.4638 6.77614 20.0713 7.09082C17.3998 7.69534 15.5928 9.59253 15.3221 12.2814C15.1631 13.8647 15.2299 15.4696 15.196 17.0646C15.1927 17.2393 15.196 17.4148 15.196 17.631H10.6524V22.728H15.1639V34.9649C9.08988 34.3555 1.1632 28.9255 0.11251 19.5953C-1.0287 9.465 6.6535 0.7856 16.7103 0.0494112C26.6149 -0.676012 35.4011 6.81671 35.9678 16.4973C36.5634 26.6632 28.7746 33.958 20.8412 35.0006V22.7553H25.0016C25.2706 21.0386 25.5346 19.3601 25.8036 17.6442H20.8759L20.8767 17.6434Z"
            fill="#FE0404" />
    </g>
    <defs>
        <clipPath id="clip0_1059_1163">
            <rect width="40" height="40" fill="white" />
        </clipPath>
    </defs>
</svg>
    