<svg width="645" height="354" viewBox="0 0 645 354" fill="none" xmlns="http://www.w3.org/2000/svg">
    <mask id="mask0_0_1" style="mask-type:alpha" maskUnits="userSpaceOnUse" x="0" y="0" width="1512" height="354">
    <rect width="1512" height="354" fill="#F6F8F7"/>
    </mask>
    <g mask="url(#mask0_0_1)">
    <circle cx="35.5" cy="263.5" r="45.5" fill="#D51C23"/>
    <path d="M243.209 -80.1278C258.724 -101.044 288.257 -105.423 309.173 -89.9085C330.089 -74.394 334.468 -44.861 318.954 -23.9448L139.67 217.762C124.155 238.678 94.6221 243.057 73.7058 227.543C52.7895 212.028 48.4105 182.495 63.925 161.579L243.209 -80.1278Z" fill="#D51C23"/>
    <ellipse cx="204.5" cy="144" rx="45.5" ry="45" fill="black" fill-opacity="0.62"/>
    <path d="M101.376 197.238C116.89 176.322 146.423 171.943 167.34 187.457C188.256 202.972 192.635 232.505 177.12 253.421L-2.16393 495.128C-17.6784 516.044 -47.2114 520.423 -68.1277 504.908C-89.0439 489.394 -93.4229 459.861 -77.9085 438.945L101.376 197.238Z" fill="black" fill-opacity="0.62"/>
    <path d="M424.642 204.736C448.294 172.849 493.316 166.173 525.203 189.825C557.089 213.477 563.765 258.499 540.114 290.386L390.296 492.366C366.645 524.252 321.622 530.928 289.736 507.276C257.849 483.625 251.173 438.602 274.825 406.716L424.642 204.736Z" fill="#EDEFEE"/>
    <circle cx="578.5" cy="106.5" r="66.5" fill="#EDEFEE"/>
    </g>
    </svg>
    