<svg width="40" height="40" viewBox="0 0 40 39" fill="none" xmlns="http://www.w3.org/2000/svg">
    <g clip-path="url(#clip0_1059_1176)">
        <path
            d="M39.9996 18.5073V20.4755C39.9754 20.6159 39.939 20.7556 39.9285 20.8968C39.7498 23.4385 39.0934 25.858 37.9195 28.1323C34.0948 35.5405 26.4089 39.7002 17.9413 38.9019C13.2022 38.4554 9.10912 36.555 5.80502 33.2268C0.943065 28.3295 -0.8735 22.4508 0.386858 15.7376C1.94876 7.42056 9.29748 0.905306 17.9446 0.0998725C22.6739 -0.340315 27.0678 0.659968 31.0187 3.24982C35.7577 6.35716 38.6528 10.6833 39.6811 16.1746C39.8258 16.9453 39.8953 17.7295 40.0004 18.5073H39.9996ZM7.2303 19.4839C7.21656 19.4839 7.20363 19.4839 7.18988 19.4839C7.18988 21.3598 7.18422 23.235 7.19392 25.1109C7.19635 25.5424 7.2109 25.9802 7.28932 26.4031C7.89403 29.6634 10.6047 31.9425 14.0075 31.9756C17.9995 32.0143 21.9924 32.019 25.9837 31.9748C29.8496 31.9314 32.7738 28.9992 32.7875 25.219C32.8013 21.4151 32.815 17.6111 32.7714 13.808C32.7617 12.9978 32.6161 12.1514 32.3396 11.3886C31.3792 8.73639 28.7946 7.03164 25.8325 7.02218C22.0417 7.01113 18.251 7.01666 14.461 7.02218C14.0188 7.02218 13.5741 7.04663 13.1343 7.09475C10.0566 7.43002 7.40816 10.0491 7.25213 13.0728C7.14218 15.2051 7.23111 17.3469 7.23111 19.4839H7.2303Z"
            fill="#FE0404" />
        <path
            d="M9.23077 19.5316C9.23077 17.931 9.22672 16.3311 9.23157 14.7305C9.24128 11.4054 11.7369 8.97101 15.1397 8.96785C18.4066 8.9647 21.6727 8.96154 24.9396 8.96943C27.8233 8.97653 30.1548 10.8809 30.673 13.649C30.7353 13.9819 30.7482 14.3274 30.749 14.6666C30.7547 17.8939 30.7611 21.1203 30.749 24.3476C30.7393 27.1859 28.8662 29.4027 26.0237 29.9549C25.6567 30.0259 25.2767 30.0606 24.9032 30.0621C21.6233 30.07 18.3427 30.0771 15.0629 30.0637C12.1622 30.0519 9.81688 28.1271 9.30514 25.351C9.23885 24.9929 9.23562 24.6198 9.234 24.2537C9.22672 22.6799 9.23077 21.1054 9.23077 19.5316ZM20.0097 26.3071C23.9137 26.2993 27.09 23.2353 27.0771 19.4905C27.0633 15.745 23.8619 12.6858 19.9717 12.7023C16.0669 12.7189 12.8938 15.7844 12.9059 19.5276C12.9181 23.2779 16.1009 26.3142 20.0097 26.3071ZM29.3068 13.0668C29.3472 12.0192 28.4733 11.1159 27.3899 11.0844C26.2783 11.052 25.3616 11.8906 25.3292 12.9698C25.2977 14.0158 26.1724 14.9214 27.2509 14.9601C28.3471 14.9995 29.2647 14.1546 29.3068 13.0676V13.0668Z"
            fill="#FE0404" />
        <path
            d="M19.9588 24.3603C17.1672 24.3445 14.8979 22.1372 14.9287 19.4677C14.9594 16.7879 17.2489 14.6319 20.0437 14.6509C22.8037 14.6698 25.0697 16.8771 25.0536 19.53C25.0374 22.2122 22.7544 24.376 19.9588 24.3595V24.3603Z"
            fill="#FE0404" />
    </g>
    <defs>
        <clipPath id="clip0_1059_1176">
            <rect width="40" height="40" fill="white" />
        </clipPath>
    </defs>
</svg>
    