<svg width="20" height="14" viewBox="0 0 20 14" fill="none" xmlns="http://www.w3.org/2000/svg">
    <path d="M20 1.55543V12.443C19.9421 12.6267 19.9077 12.822 19.8228 12.992C19.478 13.6818 18.8972 13.9981 18.1337 13.9981C14.293 13.9988 10.4522 13.9981 6.61153 13.9981C5.01677 13.9981 3.42162 14.0016 1.82687 13.9969C0.77922 13.9938 0.00786731 13.2537 0.00512785 12.2208C-0.00309053 8.74103 4.0283e-05 5.26092 0.00434515 1.7808C0.00512785 1.1885 0.232503 0.682375 0.73265 0.351326C0.978809 0.187946 1.28524 0.114249 1.56427 0C7.18877 0 12.8133 0 18.4378 0C18.4612 0.00974822 18.4843 0.0241756 18.5086 0.0280749C18.9583 0.0974822 19.3195 0.313893 19.6095 0.661319C19.8278 0.923351 19.9233 1.23412 20 1.55543ZM2.02254 1.17096C2.08164 1.23451 2.11412 1.27234 2.14934 1.30704C4.33151 3.46881 6.51251 5.63174 8.69782 7.79078C9.47622 8.55972 10.5254 8.5601 11.3027 7.79234C13.4927 5.62901 15.678 3.4614 17.8648 1.29495C17.8977 1.26259 17.9235 1.22282 17.965 1.17135L2.02254 1.17096ZM7.06941 7.80793C5.39677 9.50568 3.74762 11.18 2.13643 12.8162H17.864C16.2509 11.1781 14.6037 9.50451 12.933 7.80793C12.6489 8.09648 12.3871 8.36475 12.1221 8.63029C11.5829 9.17073 10.9356 9.48463 10.167 9.5244C9.27076 9.5708 8.51154 9.25847 7.88029 8.6299C7.61456 8.36514 7.35353 8.09609 7.06941 7.80793ZM1.18388 11.9564L1.2328 11.9884C2.88156 10.3163 4.53071 8.64394 6.13486 7.01716C4.51154 5.37556 2.85808 3.70315 1.18388 2.01047V11.9564ZM18.8213 1.99799C17.1385 3.70003 15.4846 5.37244 13.8926 6.98245C15.5042 8.61782 17.1541 10.2914 18.8213 11.9833V1.99799Z" fill="black"/>
    </svg>
    