<svg width="19" height="19" viewBox="0 0 19 19" fill="none" xmlns="http://www.w3.org/2000/svg">
    <path d="M8.91321 0C9.30968 0 9.70578 0 10.1022 0C10.1499 0.0104132 10.1968 0.0271487 10.2448 0.0308677C11.5906 0.132396 12.8552 0.507644 14.0409 1.15103C18.15 3.38131 20.0266 8.2718 18.4382 12.6089C16.5131 17.8653 10.4373 20.324 5.37551 17.8981C5.28952 17.8568 5.17188 17.8389 5.07993 17.8594C3.7405 18.1576 2.40293 18.4645 1.06461 18.7687C0.725471 18.8457 0.385959 18.9208 0.0315563 19C0.0401185 18.9394 0.0423521 18.9089 0.049053 18.8795C0.405689 17.2569 0.764187 15.6343 1.11598 14.0106C1.1346 13.9243 1.11971 13.8131 1.0795 13.7343C0.0810683 11.7848 -0.237596 9.74118 0.177114 7.58193C0.892248 3.86069 4.07033 0.75756 7.81241 0.149876C8.17798 0.0903717 8.54615 0.0494627 8.91321 0ZM1.97816 17.0379C3.10242 16.7835 4.18611 16.5347 5.27277 16.2974C5.37403 16.2751 5.50693 16.2963 5.59888 16.3457C7.39881 17.3179 9.30186 17.6028 11.2931 17.1446C16.668 15.908 19.2475 9.81705 16.2421 5.15974C14.4478 2.37867 11.069 0.953552 7.87197 1.64752C5.79953 2.09714 4.12952 3.17603 2.91182 4.91243C1.72911 6.59937 1.28016 8.48006 1.5668 10.5229C1.7146 11.5754 2.09394 12.5505 2.62927 13.468C2.6799 13.5546 2.70931 13.6807 2.68958 13.7763C2.54625 14.4717 2.38692 15.1639 2.23392 15.8574C2.14941 16.2416 2.06714 16.6262 1.97816 17.0379Z" fill="black"/>
    <path d="M6.7197 5.27763C7.1199 5.17871 7.31794 5.41375 7.45494 5.76222C7.65411 6.26763 7.86481 6.76858 8.07552 7.26953C8.13508 7.41123 8.14885 7.55069 8.05839 7.67527C7.90018 7.89395 7.73861 8.11188 7.55992 8.31383C7.3481 8.5537 7.33358 8.61097 7.49552 8.8806C8.19427 10.0424 9.16441 10.8885 10.4246 11.3987C10.6606 11.4943 10.7481 11.4798 10.9111 11.2853C11.1173 11.0387 11.3225 10.7907 11.5201 10.537C11.7148 10.2871 11.7967 10.247 12.086 10.3794C12.6087 10.6181 13.1231 10.8747 13.6399 11.1258C14.0103 11.3058 14.0188 11.3247 13.9734 11.7427C13.877 12.6275 13.1462 13.3151 12.255 13.4036C11.5641 13.4725 10.9372 13.2556 10.301 13.0511C8.61419 12.5085 7.37006 11.3943 6.34185 10.0015C5.91932 9.42915 5.50051 8.85234 5.29241 8.158C5.01023 7.21598 5.15691 6.36581 5.83035 5.62201C6.06897 5.35871 6.34334 5.22073 6.71896 5.27726L6.7197 5.27763Z" fill="black"/>
    </svg>
    