<svg width="40" height="38" viewBox="0 0 40 38" fill="none" xmlns="http://www.w3.org/2000/svg">
    <ellipse cx="20" cy="19" rx="20" ry="19" fill="#FE0404" />
    <g clip-path="url(#clip0_0_1)">
        <path
            d="M19.1974 6C19.7399 6 20.282 6 20.8245 6C20.8897 6.0137 20.9539 6.03572 21.0196 6.04062C22.8612 6.17421 24.5917 6.66795 26.2142 7.51451C31.8372 10.4491 34.4052 16.8839 32.2315 22.5907C29.5973 29.507 21.283 32.7421 14.3563 29.5501C14.2387 29.4958 14.0777 29.4723 13.9519 29.4992C12.1189 29.8916 10.2886 30.2953 8.4572 30.6956C7.99312 30.7969 7.52852 30.8958 7.04355 31C7.05527 30.9202 7.05832 30.8801 7.06749 30.8415C7.55552 28.7065 8.0461 26.5715 8.5275 24.435C8.55297 24.3215 8.5326 24.1751 8.47758 24.0714C7.1113 21.5063 6.67523 18.8173 7.24273 15.9762C8.22134 11.0799 12.5703 6.99679 17.691 6.1972C18.1913 6.11891 18.6951 6.06508 19.1974 6ZM9.70733 28.4182C11.2458 28.0835 12.7287 27.7561 14.2157 27.4439C14.3543 27.4146 14.5362 27.4425 14.662 27.5076C17.1251 28.7867 19.7292 29.1615 22.4541 28.5587C29.8092 26.9316 33.339 18.9172 29.2264 12.7891C26.771 9.12983 22.1475 7.25467 17.7725 8.16779C14.9366 8.7594 12.6513 10.179 10.985 12.4637C9.36652 14.6834 8.75216 17.158 9.14441 19.8459C9.34666 21.2308 9.86576 22.5138 10.5983 23.721C10.6676 23.8351 10.7078 24.0009 10.6808 24.1267C10.4847 25.0418 10.2667 25.9524 10.0573 26.8651C9.94166 27.3705 9.82959 27.8765 9.70784 28.4182H9.70733Z"
            fill="white" />
        <path
            d="M16.1956 12.9442C16.7433 12.8141 17.0143 13.1233 17.2017 13.5819C17.4743 14.2469 17.7626 14.906 18.051 15.5652C18.1325 15.7516 18.1513 15.9351 18.0275 16.099C17.811 16.3868 17.5899 16.6735 17.3454 16.9392C17.0555 17.2549 17.0357 17.3302 17.2573 17.685C18.2135 19.2137 19.541 20.3269 21.2654 20.9983C21.5884 21.1241 21.7081 21.105 21.9312 20.8491C22.2135 20.5246 22.4942 20.1983 22.7647 19.8645C23.0311 19.5357 23.1432 19.4828 23.539 19.657C24.2542 19.9712 24.9582 20.3088 25.6653 20.6391C26.1722 20.876 26.1839 20.9009 26.1218 21.451C25.9898 22.6151 24.9898 23.5199 23.7703 23.6364C22.8248 23.7269 21.9669 23.4416 21.0963 23.1725C18.7881 22.4585 17.0856 20.9925 15.6786 19.1599C15.1004 18.4068 14.5273 17.6478 14.2425 16.7342C13.8564 15.4947 14.0571 14.3761 14.9786 13.3974C15.3052 13.0509 15.6806 12.8694 16.1946 12.9438L16.1956 12.9442Z"
            fill="white" />
    </g>
    <defs>
        <clipPath id="clip0_0_1">
            <rect width="26" height="25" fill="white" transform="translate(7 6)" />
        </clipPath>
    </defs>
</svg>
    