<svg width="148" height="154" viewBox="0 0 148 154" fill="none" xmlns="http://www.w3.org/2000/svg">
    <g clip-path="url(#clip0_820_7661)">
    <path d="M74.0161 0.0322209C95.5787 0.0322209 117.141 0.0483314 138.704 0C141.562 0 144.002 0.596088 145.913 2.86766C147.213 4.39816 147.952 6.02532 147.952 8.08746C147.92 30.3682 147.952 52.6651 147.936 74.9459C147.936 79.8596 144.677 83.0495 139.764 83.13C137.58 83.1623 135.396 83.1139 133.213 83.1461C130.082 83.1945 130.082 83.2106 130.066 85.9977C130.05 88.8976 130.066 88.9459 133.052 88.962C137.291 88.9943 141.53 88.9943 145.752 88.962C147.037 88.962 147.952 89.0909 147.968 90.7825C148 92.5224 147.31 92.9896 145.704 92.9735C139.667 92.9091 133.646 92.9574 127.609 92.9574C113.368 92.9574 99.1109 92.9413 84.8696 92.9574C79.5873 92.9574 80.2777 92.2969 80.2777 97.7745C80.2456 115.045 80.2777 132.299 80.2777 149.57C80.2777 154.081 80.647 153.742 76.1675 153.807C73.9839 153.839 71.8004 153.855 69.6168 153.968C68.1237 154.048 67.5136 153.388 67.5778 151.938C67.6259 150.907 67.5778 149.876 67.5778 148.845C67.5778 132.09 67.5778 115.351 67.5778 98.5961C67.5778 97.8228 67.5778 97.0495 67.5778 96.2762C67.5296 92.9896 67.5296 92.9574 64.1258 92.9574C44.3615 92.9574 24.5971 92.9574 4.83272 92.9574C3.93361 92.9574 3.0345 92.8769 2.13539 92.9574C0.385333 93.1669 0 92.2969 0 90.7181C0 88.9459 1.02755 88.9781 2.24778 88.9781C6.74333 88.9942 11.2389 89.0104 15.7184 88.9781C18.4157 88.9459 18.4639 88.8493 18.4639 86.1266C18.4639 83.42 18.3354 83.2106 15.7505 83.1461C13.1816 83.0817 10.6127 83.1461 8.04383 83.1139C3.83728 83.0495 1.09178 80.7296 0.353222 76.5731C0.128444 75.3165 0.0160555 74.0115 0.0160555 72.7388C0 51.9724 0.0321111 31.2382 0 10.4879C0 6.41197 0.786722 2.86766 4.84877 0.805524C6.45433 0 8.05988 0.0322209 9.7136 0.0322209C31.1478 0.0322209 52.5819 0.0322209 74.0161 0.0322209ZM73.711 76.0414C94.6153 76.0414 115.536 76.0414 136.44 76.0414C137.339 76.0414 138.238 76.0092 139.137 76.0414C140.422 76.0898 141.016 75.5098 140.952 74.2048C140.903 73.4315 140.952 72.6582 140.952 71.8849C140.952 51.7952 140.952 31.7215 140.952 11.6318C140.952 8.61373 139.384 7.09935 136.247 7.08861C94.808 7.08861 53.3847 7.08861 11.9453 7.08861C11.0462 7.08861 10.1471 7.12083 9.24799 7.08861C8.15622 7.05639 7.57822 7.50748 7.59427 8.65132C7.59427 9.42463 7.59427 10.1979 7.59427 10.9712C7.59427 31.3188 7.59427 51.6663 7.57822 71.9977C7.57822 72.6421 7.64244 73.2865 7.57822 73.931C7.36949 75.7192 8.28466 76.1703 9.8581 76.0414C10.7572 75.9609 11.6563 76.0414 12.5554 76.0414C32.946 76.0414 53.3526 76.0414 73.7431 76.0414H73.711ZM102.579 88.9781C109.242 88.9781 115.905 89.0104 122.568 88.9781C124.976 88.9781 125.041 88.7848 125.025 85.8527C125.008 83.3395 124.864 83.13 122.504 83.0978C118.795 83.0495 115.07 83.13 111.361 83.13C102.145 83.13 92.9134 83.13 83.6975 83.1461C82.7021 83.1461 81.4016 82.7112 80.7754 83.5811C79.8282 84.8861 80.2777 86.5455 80.4383 88.0437C80.5828 89.3165 81.7709 88.9943 82.6058 88.9943C89.2688 89.0104 95.9319 88.9943 102.595 88.9943L102.579 88.9781ZM45.4211 88.9781C51.8433 88.9781 58.2495 88.9781 64.6717 88.9781C65.5387 88.9781 66.6787 89.3648 67.1764 88.527C68.0113 87.1577 67.7544 85.5144 67.4012 84.0322C67.0801 82.6789 65.7314 83.1139 64.7841 83.0978C58.2335 83.0656 51.6989 83.0817 45.1482 83.0817C38.8544 83.0817 32.5767 83.0817 26.2829 83.0817C25.3999 83.0817 24.2439 82.7434 23.7622 83.5811C22.9755 84.9666 23.2163 86.626 23.5374 88.0921C23.8425 89.4615 25.2233 88.9298 26.1545 88.9459C32.5767 88.9942 38.9829 88.962 45.4051 88.9781H45.4211Z" fill="#FE0404"/>
    <path d="M71.3669 40.1795C75.2844 40.1795 77.2432 42.1181 77.2432 45.9954C77.2432 46.382 77.2432 46.7687 77.2432 47.1554C77.2432 51.9885 76.5528 53.1484 72.0091 54.6467C69.2315 55.565 66.3576 56.3544 63.3552 55.8228C58.105 54.9045 54.043 52.5524 52.2608 47.0909C50.3181 41.1623 51.2172 35.7814 54.9742 30.8838C55.5682 30.1105 56.5155 29.5466 57.3986 29.0311C61.9102 26.4212 66.6466 26.5662 71.4151 28.145C73.8716 28.9666 75.3005 31.0449 76.3441 33.2681C76.9542 34.557 76.7294 35.5558 74.8188 35.9264C72.6032 36.3613 71.2063 36.0875 69.6168 34.2348C66.2612 30.3199 59.3573 32.2048 57.9445 37.183C57.1898 39.8251 56.9972 42.4189 57.8642 45.0932C59.7427 50.9091 64.9286 52.0207 70.2109 49.2336C71.5114 48.5409 71.1742 47.2198 71.0618 46.1243C70.9173 44.8354 69.7774 45.1738 68.9265 45.1254C68.4127 45.0932 67.8989 45.1254 67.3851 45.1254C64.9768 45.0127 65.0571 44.916 64.9286 42.3867C64.8162 40.244 65.9722 40.1151 67.5457 40.1634C68.8301 40.2117 70.1146 40.1634 71.3829 40.1634L71.3669 40.1795Z" fill="#FE1010"/>
    <path d="M104.313 41.3234C104.313 45.061 104.329 48.7825 104.313 52.5202C104.297 55.42 104.265 55.42 101.278 55.4039C101.021 55.4039 100.765 55.3878 100.508 55.4039C98.9182 55.5328 98.1636 54.9206 98.2278 53.1968C98.3241 50.748 98.1957 48.2992 98.2599 45.8665C98.3081 44.2877 97.8264 43.4177 96.0924 43.5788C93.5556 43.8044 90.4569 42.5478 88.6426 44.0944C86.9086 45.5927 88.2734 48.7181 88.0165 51.1024C87.9844 51.4891 88.0165 51.8757 88.0165 52.2624C87.9683 55.42 87.9523 55.4361 84.7893 55.4039C81.9796 55.3717 81.9154 55.3717 81.8993 52.7135C81.8672 44.9966 81.8993 37.2635 81.8993 29.5466C81.8993 28.7089 81.5943 27.5006 82.8466 27.3556C84.4521 27.1623 86.1861 26.7273 87.6472 27.7584C88.0004 28.0161 87.9844 28.9344 87.9844 29.5627C88.0165 31.7538 88.0646 33.9448 87.9844 36.1197C87.9041 37.8435 88.3536 38.8101 90.3285 38.6651C92.2391 38.5363 94.1818 38.5524 96.0924 38.6651C97.8425 38.7618 98.292 37.8918 98.2439 36.3291C98.1796 34.1381 98.3402 31.9471 98.1957 29.7722C98.0672 27.6778 98.9664 26.9689 100.909 27.2267C101.294 27.275 101.68 27.275 102.065 27.2267C103.687 27.0495 104.377 27.6617 104.329 29.3694C104.249 33.3648 104.297 37.3441 104.297 41.3395L104.313 41.3234Z" fill="#FE1010"/>
    <path d="M115.696 43.5949C115.696 40.6467 115.584 37.6824 115.728 34.7342C115.825 32.8009 115.054 32.2209 113.288 32.3659C112.276 32.4465 111.249 32.3981 110.221 32.3659C107.781 32.2854 106.512 30.1427 107.588 27.9839C107.925 27.2911 108.552 27.2267 109.194 27.2267C115.584 27.2267 121.99 27.2267 128.38 27.2267C130.098 27.2267 130.098 28.3705 130.082 29.5788C130.066 30.8515 130.323 32.3015 128.348 32.3337C126.935 32.3498 125.522 32.4465 124.125 32.3337C122.215 32.1726 121.749 33.0426 121.781 34.8147C121.878 39.954 121.813 45.0932 121.813 50.2163C121.813 50.7319 121.813 51.2474 121.813 51.7629C121.797 55.2267 120.24 56.3061 116.804 55.3395C115.552 54.985 115.744 54.0828 115.728 53.229C115.712 50.023 115.728 46.8009 115.728 43.5949H115.696Z" fill="#FE1010"/>
    <path d="M18.496 41.5006C18.496 37.7791 18.6244 34.0414 18.4478 30.3199C18.3515 28.1611 19.2345 27.5972 21.113 27.8389C21.4984 27.8872 21.8837 27.8872 22.269 27.8389C23.987 27.6295 24.4847 28.4672 24.4686 30.0782C24.4205 35.3464 24.4526 40.6145 24.4686 45.8826C24.4686 46.7848 24.5007 47.687 24.4686 48.5892C24.4365 49.878 25.0466 50.4097 26.3311 50.3936C29.1408 50.3613 31.9666 50.4258 34.7763 50.3936C37.7145 50.3452 37.8108 50.2002 37.8268 53.6962C37.8268 55.1139 37.0883 55.42 35.9002 55.42C30.7785 55.42 25.6567 55.3556 20.535 55.4522C18.7047 55.4845 18.4478 54.5984 18.4799 53.084C18.5441 49.2336 18.496 45.3671 18.512 41.5167L18.496 41.5006Z" fill="#FE0404"/>
    <path d="M47.412 41.565C47.412 45.2865 47.3157 49.008 47.4441 52.7296C47.5084 54.6789 46.9625 55.4683 44.8913 55.42C41.5839 55.3395 41.5678 55.4683 41.5518 52.0529C41.5518 44.7388 41.5518 37.4246 41.5678 30.0944C41.5678 29.1277 41.1022 27.6939 42.3385 27.3878C43.7674 27.0334 45.4051 26.8884 46.834 27.5328C47.6368 27.8872 47.3799 28.8861 47.3799 29.6271C47.396 33.6064 47.3799 37.5857 47.3799 41.565H47.412Z" fill="#FE0404"/>
    </g>
    <defs>
    <clipPath id="clip0_820_7661">
    <rect width="148" height="154" fill="white"/>
    </clipPath>
    </defs>
    </svg>
    