<svg width="223" height="160" viewBox="0 0 223 160" fill="none" xmlns="http://www.w3.org/2000/svg">
    <g clip-path="url(#clip0_677_7985)">
    <path d="M111.748 49.5177C111.351 53.2672 111.172 56.6002 110.596 59.8537C109.584 65.7657 105.731 68.8804 99.7335 68.9597C98.4625 68.9597 97.1915 68.9796 95.9205 68.9597C92.0281 68.8605 89.0095 70.3088 86.4675 73.364C81.5622 79.1966 76.1804 84.553 69.6665 88.6597C60.4518 94.4724 55.6061 92.9845 49.132 88.4216C43.9487 84.7713 39.0633 80.7043 33.5226 77.5896C31.4572 76.439 29.3323 75.3478 27.1676 74.4154C24.4667 73.2449 22.2822 73.4235 20.0977 76.062C17.2578 79.514 13.5243 82.0335 8.77791 82.2716C5.64014 82.4303 2.70096 81.8946 1.01292 78.7998C-0.794273 75.4669 -0.0793384 72.3323 2.18462 69.5351C5.36211 65.5871 8.63889 61.7384 11.9157 57.8698C13.9612 55.4495 15.9868 53.0093 18.1515 50.7279C19.5615 49.24 19.8594 47.395 20.2963 45.5698C21.9843 38.6857 23.0766 31.6231 26.6711 25.2945C33.8006 12.7366 44.6438 6.07071 58.9028 4.90023C62.5172 4.60264 65.8535 4.56296 68.753 1.52763C71.1957 -1.05142 76.0413 -0.257865 77.8485 3.05522C79.894 6.82459 83.2701 8.09427 86.6661 9.6417C99.1377 15.3553 106.942 24.9771 110.14 38.2493C111.053 42.0583 111.292 46.0459 111.768 49.5177H111.748ZM85.0773 67.3131C83.846 65.4086 82.4162 64.7936 81.0657 64.0596C77.0343 61.8574 73.1022 59.4966 68.9714 57.4731C62.7157 54.4179 56.6587 50.9858 50.0852 48.6051C41.9429 45.6491 33.6616 44.1017 25.0029 45.8475C24.0696 46.0459 22.9972 46.2641 23.3943 47.5933C23.6724 48.5059 24.5263 48.5258 25.3604 48.3472C36.8788 45.7682 47.2056 49.974 57.2743 54.4576C64.6222 57.731 71.5333 61.9765 78.6826 65.7062C80.4302 66.6188 82.158 67.948 85.0575 67.3131H85.0773ZM18.7473 72.1736C14.0406 71.3999 9.90989 71.7372 5.89831 73.2846C4.78619 73.721 3.2173 74.0583 3.37618 75.6851C3.51519 77.1532 4.40886 78.3237 5.85859 78.899C7.05015 79.395 8.341 79.6132 9.57228 79.1966C13.1867 77.9666 16.3642 76.1017 18.7274 72.1538L18.7473 72.1736Z" fill="#FE0404"/>
    <path d="M165.11 7.97519C172.816 8.47116 180.561 8.62987 187.929 11.4271C189.716 12.1017 191.364 12.9944 193.072 13.8078C196.667 15.5139 197.997 18.5096 198.216 22.1996C198.275 23.3106 198.335 24.4216 198.216 25.5325C197.918 28.0917 199.05 28.6671 201.473 28.7067C211.7 28.8853 218.393 34.3013 221.431 44.2207C224.311 53.6045 223.258 62.3137 217.439 70.2889C213.448 75.7644 208.026 78.6609 201.195 78.2641C198.851 78.1252 197.957 78.6212 198.196 80.982C198.315 82.2319 198.255 83.5214 198.196 84.7911C198.037 88.3621 196.528 91.0205 193.291 92.8655C186.042 96.9523 178.078 98.0831 169.996 98.4203C160.642 98.7973 151.308 98.46 142.371 95.1668C140.584 94.5121 138.836 93.8376 137.228 92.7663C134.13 90.6832 132.402 88.0645 132.422 84.1165C132.521 63.6627 132.521 43.2288 132.422 22.7749C132.402 17.9938 134.805 15.0576 138.737 13.0539C143.146 10.7923 147.932 9.60197 152.797 9.02665C156.869 8.55052 160.92 7.75697 165.07 7.99503L165.11 7.97519ZM163.839 27.0601C166.699 27.0601 168.605 27.1196 170.492 27.0601C176.192 26.8617 181.772 25.969 187.174 24.0446C188.782 23.4693 190.907 23.0924 190.888 21.0093C190.868 18.9064 188.624 18.708 187.075 18.0335C186.499 17.7756 185.883 17.6367 185.287 17.4185C181.256 15.9504 177.026 15.5338 172.776 15.0973C162.926 14.0855 153.274 14.7005 143.861 17.9144C142.113 18.5096 139.571 18.8667 139.571 20.9696C139.571 23.0725 142.153 23.3899 143.881 24.0645C150.613 26.6832 157.643 27.3775 163.839 27.0601ZM198.235 52.8109C198.235 56.9175 198.196 61.0242 198.235 65.1308C198.275 68.1066 198.911 68.7415 201.77 68.8208C204.968 68.9002 207.589 67.6106 209.635 65.1705C214.957 58.7625 214.679 47.3155 209.178 41.0862C207.391 39.0626 205.067 38.15 202.585 37.6937C199.685 37.1581 198.275 38.4674 198.235 41.4433C198.196 45.2325 198.235 49.0217 198.235 52.8109Z" fill="#FE0404"/>
    <path d="M174.047 146.629C173.193 147.68 172.259 148.751 171.406 149.882C169.559 152.342 167.056 153.414 164.018 153.414C150.375 153.414 136.751 153.394 123.108 153.414C120.188 153.414 117.944 152.243 116.097 150.081C113.694 147.263 111.907 144.129 111.232 140.459C109.703 132.107 110.239 124.131 115.204 116.811C117.07 114.073 119.394 112.684 122.691 112.684C136.811 112.704 150.911 112.744 165.031 112.645C167.354 112.645 169.022 113.557 170.333 115.224C171.942 117.267 173.65 117.704 176.092 116.553C180.7 114.371 185.724 113.498 190.729 112.843C195.316 112.228 199.904 112.764 204.273 114.311C211.76 116.95 215.87 122.425 216.585 130.202C217.36 138.554 215.573 146.192 207.569 150.577C201.194 154.068 194.244 154.167 187.392 151.787C182.924 150.239 178.575 148.394 174.027 146.609L174.047 146.629ZM176.688 131.65C176.688 133.396 176.847 135.142 176.648 136.868C176.45 138.515 176.986 139.526 178.376 140.36C184.354 143.911 190.808 145.895 197.719 145.934C201.214 145.954 204.809 145.101 206.993 142.006C210.369 137.265 210.608 132.007 208.384 126.71C206.318 121.83 202.009 120.422 197.203 120.084C191.781 119.688 186.479 120.521 181.335 122.306C176.49 123.973 176.49 123.953 176.708 129.27C176.748 130.063 176.708 130.857 176.708 131.65H176.688ZM169.658 133.416C170.055 130.361 169.34 127.742 168.526 125.183C167.156 120.898 166.143 120.104 161.734 120.084C149.362 120.045 136.989 120.124 124.617 120.025C121.797 120.005 120.248 121.096 119.255 123.655C117.13 129.19 117.11 134.785 118.58 140.399C119.771 145.002 121.201 146.033 125.928 146.033C137.982 146.033 150.037 146.014 162.092 145.994C162.886 145.994 163.68 145.994 164.475 145.974C166.302 145.954 166.659 144.387 167.354 143.216C168.188 141.808 166.957 141.312 166.183 140.558C164.375 138.792 162.37 137.225 160.96 135.063C159.887 133.396 159.689 131.75 161.337 130.401C162.886 129.111 164.514 129.25 166.103 130.5C167.195 131.353 167.831 132.761 169.658 133.416Z" fill="#FE1010"/>
    <path d="M14.3185 159.068C13.127 158.83 11.4389 158.83 9.81046 159.762C8.85721 160.317 7.92382 159.821 7.30819 159.048C6.51381 158.076 6.61311 156.985 7.30819 155.973C13.266 147.244 20.9912 140.34 29.7293 134.507C34.8729 131.095 39.937 127.564 45.3785 124.608C47.0069 123.735 47.9602 122.981 47.0268 120.66C46.153 118.477 48.2382 116.593 50.2241 117.803C55.0698 120.759 57.6118 117.604 60.2531 114.629C63.0929 111.435 65.7541 108.102 68.8323 105.126C70.6792 103.36 72.7247 101.952 74.9688 100.741C79.4967 98.2815 83.8856 98.5791 87.8575 101.614C90.0023 103.241 91.5314 103.697 94.0933 102.368C97.5091 100.583 100.15 101.753 101.977 104.967C103.626 107.883 103.129 109.986 100.389 112.466C88.3937 123.338 75.2071 132.543 61.1467 140.498C49.9858 146.827 38.4873 152.441 26.393 156.786C22.6793 158.135 18.9259 159.385 14.2987 159.048L14.3185 159.068ZM90.3796 113.081C90.181 111.177 88.3341 109.907 86.229 110.443C85.1566 110.72 84.0842 110.998 83.0515 111.395C73.8765 114.906 65.1583 119.37 56.5791 124.092C49.529 127.98 49.7078 128.079 53.8584 135.102C55.0102 137.047 55.9039 137.364 57.8898 136.293C65.8335 132.007 73.3999 127.147 80.7081 121.87C83.5282 119.846 86.5468 118.061 88.9497 115.502C89.5654 114.867 90.5981 114.45 90.3597 113.081H90.3796ZM50.8993 139.705C48.973 136.531 47.2651 133.714 45.4777 130.758C44.4649 131.214 43.5315 131.452 42.7967 131.988C37.2361 135.856 31.7351 139.764 26.1348 143.693C26.9292 145.22 27.6441 146.43 28.2002 147.72C28.9548 149.466 29.8088 149.981 31.8146 149.148C38.2092 146.45 44.5841 143.712 50.9192 139.725L50.8993 139.705ZM70.7189 110.8C75.4256 109.213 79.6357 107.626 83.9849 105.364C78.6626 103.697 75.0085 105.225 70.7189 110.8ZM21.6665 147.581C19.2833 148.95 17.2577 150.636 16.1456 153.354C17.5556 153.85 18.628 153.572 19.7004 153.354C25.0227 152.342 25.122 151.132 21.6665 147.581ZM97.3105 107.844C97.2906 107.249 97.092 106.812 96.4963 106.931C95.3841 107.13 94.3713 107.586 94.1132 108.836C94.0139 109.332 94.4905 109.669 95.0068 109.689C96.3573 109.768 96.8935 108.836 97.3105 107.844Z" fill="#FE1010"/>
    <path d="M97.3304 107.844C96.9332 108.836 96.397 109.768 95.0267 109.689C94.5104 109.649 94.0338 109.332 94.1331 108.836C94.3714 107.606 95.3842 107.13 96.5162 106.931C97.112 106.832 97.2907 107.249 97.3304 107.844Z" fill="#FFFEFE"/>
    <path d="M138.757 122.882C142.073 122.882 145.39 122.822 148.726 122.882C152.36 122.981 153.671 124.191 153.77 127.643C153.89 131.273 153.909 134.924 153.751 138.534C153.612 141.669 152.519 142.958 149.421 143.038C142.312 143.197 135.182 143.157 128.073 142.978C124.875 142.899 123.485 141.352 123.326 138.217C123.167 134.745 123.147 131.254 123.326 127.802C123.545 124.012 124.816 122.961 128.787 122.882C132.104 122.822 135.42 122.882 138.757 122.882ZM139.094 129.885C137.029 129.885 134.964 129.984 132.898 129.865C130.396 129.726 130.575 131.392 130.615 132.999C130.654 134.547 130.237 136.293 132.799 136.233C136.771 136.154 140.723 136.233 144.695 136.193C145.489 136.193 146.244 136.114 146.641 135.221C147.892 132.444 146.383 129.944 143.364 129.885C141.934 129.845 140.504 129.885 139.075 129.885H139.094Z" fill="#FE0404"/>
    </g>
    <defs>
    <clipPath id="clip0_677_7985">
    <rect width="223" height="160" fill="white"/>
    </clipPath>
    </defs>
    </svg>
    