<svg width="182" height="172" viewBox="0 0 182 172" fill="none" xmlns="http://www.w3.org/2000/svg">
    <g clip-path="url(#clip0_677_7961)">
    <path d="M110.92 25.7339C119.112 29.9889 126.336 34.973 132.489 41.398C139.967 49.2131 145.899 58.0284 149.451 68.3016C150.267 70.6749 151.644 71.9633 153.921 73.0144C160.431 75.998 163.762 81.2194 163.762 88.4411C163.762 93.849 163.762 99.2568 163.762 105.088C167.026 104.122 170.068 104.326 173.111 104.393C178.074 104.495 181.184 107.343 181.779 112.259C181.949 113.599 181.983 114.955 181.983 116.311C181.983 130.399 181.983 144.486 181.983 158.591C181.983 159.811 181.966 161.032 181.83 162.235C181.252 167.474 178.295 170.169 172.992 170.305C171.496 170.339 170 170.237 168.505 170.322C165.547 170.491 163.151 169.372 161.451 167.05C160.482 165.728 159.53 165.117 157.814 165.134C143.553 165.202 129.293 165.202 115.033 165.134C113.537 165.134 112.501 165.558 111.634 166.796C109.764 169.457 107.079 170.457 103.883 170.322C98.3254 170.084 92.8865 170.898 87.3626 171.491C60.4059 174.322 37.4264 166.117 19.189 145.707C7.90328 133.043 1.54653 118.142 0.254789 101.393C-1.3259 80.8803 4.50395 62.3512 17.5744 46.2972C23.2512 39.3467 29.8629 33.0404 43.3413 25.7678C38.6162 21.4618 39.823 15.8167 40.3329 10.6122C40.7748 6.03507 44.803 3.78038 47.8794 4.01772C48.9672 4.10248 50.0549 3.96686 51.1427 4.03467C53.4543 4.2042 55.5109 4.06858 57.2615 2.05123C58.5023 0.610269 60.4909 0.169504 62.4795 0.220361C63.9752 0.271219 65.4709 0.220361 66.9666 0.220361C72.8474 0.220361 75.176 2.00037 76.8926 7.71336C78.0314 7.44212 77.7085 6.30631 77.9634 5.62821C78.5413 4.00077 79.6461 2.83105 80.9378 1.86475C84.5071 -0.813741 94.2462 -0.593358 97.4586 2.44114C98.9033 3.81429 100.246 4.22115 102.099 4.05162C103.713 3.89905 105.362 3.93296 106.977 4.05162C111.073 4.32286 114.081 7.2726 114.302 11.3581C114.455 14.0536 114.353 16.7829 114.319 19.4784C114.285 21.9535 112.807 23.7335 110.937 25.7339H110.92ZM177.037 137.586C177.037 129.856 177.037 122.143 177.037 114.412C177.037 109.886 176.272 109.123 171.921 109.021C170.969 109.005 170.017 109.055 169.065 109.021C166.584 108.903 164.748 109.784 164.306 112.378C163.864 114.904 161.995 114.158 160.516 114.124C158.561 114.09 159.122 112.463 159.122 111.378C159.088 104.054 159.122 96.7479 159.105 89.4244C159.105 82.2026 156.301 78.3714 149.417 76.4049C147.667 75.9132 146.919 75.0826 146.324 73.3026C138.573 50.4506 123.293 34.8713 100.552 26.6493C95.419 24.7845 95.385 24.8523 95.5379 19.4614C95.5379 19.1902 95.5379 18.919 95.5379 18.6477C95.5209 17.478 95.6399 16.5117 97.2206 16.4948C98.8693 16.4948 98.7333 17.5458 98.8863 18.6477C99.3112 21.6144 99.8551 22.0552 102.711 22.1908C109.033 22.4959 109.968 21.5805 109.934 15.1555C109.934 14.3418 110.002 13.5111 109.883 12.7143C109.492 9.88328 108.2 8.67966 105.396 8.42537C101.453 8.06937 99.7021 8.76442 98.9543 11.6294C98.5803 13.0364 98.0704 13.4094 96.8127 13.2738C95.419 13.1382 95.6059 12.1041 95.5379 11.1717C95.079 4.95011 95.028 4.8823 88.8413 4.89925C87.6175 4.89925 86.3768 4.83144 85.187 5.05182C83.4363 5.39087 82.2806 6.44193 82.2976 8.40842C82.2976 9.35776 82.2296 10.3071 82.2976 11.2564C82.4335 12.9178 81.5837 13.3585 80.105 13.3077C78.0654 13.2399 76.0258 13.2399 73.9862 13.3077C72.4225 13.3585 71.7596 12.7313 71.8786 11.1547C71.9636 10.0698 71.8786 8.9848 71.8786 7.89984C71.8786 6.66231 71.1478 5.67906 70.111 5.40782C66.9326 4.5941 63.6013 4.22115 60.5589 5.54344C58.1283 6.5945 58.7572 9.20518 58.6552 11.3412C58.6552 11.4768 58.6552 11.6124 58.6552 11.7481C58.6892 12.7313 58.2303 13.2568 57.2105 13.2568C56.3267 13.2568 55.6128 13.0364 55.6128 11.9176C55.6128 10.3919 54.899 9.39166 53.4033 8.90004C51.2617 8.18803 49.1711 8.20499 47.0295 8.90004C45.8568 9.27299 45.1769 10.0189 45.0069 11.1886C44.616 13.8841 44.667 16.6134 44.922 19.2919C45.0919 21.0889 46.3157 22.3434 48.2363 22.1399C50.6498 21.9026 53.5223 23.3436 55.3069 20.4786C55.5619 20.0548 55.5279 19.4275 55.5958 18.902C55.6468 18.4951 55.6128 18.0883 55.6638 17.6814C55.7828 16.5965 56.5816 16.4778 57.4485 16.5287C58.2813 16.5795 58.6212 17.122 58.6382 17.8679C58.6722 19.4953 58.5533 21.1397 58.7062 22.7502C58.8932 24.5811 58.1283 25.3609 56.4117 25.8695C50.6838 27.5817 45.2789 30.0228 40.1119 33.0743C15.6537 47.5009 1.07063 76.2353 5.55774 105.58C8.56614 125.177 17.9653 140.96 33.6362 152.793C50.5818 165.592 69.771 170 90.7789 166.134C93.9573 165.541 97.0336 164.643 100.365 165.761C101.912 166.287 103.815 166.033 105.566 165.439C106.994 164.948 108.268 164.219 108.336 162.829C108.438 160.388 109.883 160.455 111.617 160.455C128.188 160.472 144.76 160.506 161.332 160.421C163.134 160.421 164.051 160.811 164.391 162.676C164.765 164.676 166.448 165.473 168.25 165.744C169.575 165.948 170.969 165.965 172.312 165.863C175.983 165.592 177.02 164.473 177.02 160.76C177.054 153.03 177.02 145.317 177.02 137.586H177.037Z" fill="#FE1010"/>
    <path d="M143.197 75.7437C142.483 75.8116 141.956 75.8794 141.429 75.8963C138.46 75.9641 136.432 74.6362 135.344 71.9125C131.078 61.1985 124.144 52.5188 115.118 45.4327C114.693 45.0936 114.269 44.7546 113.827 44.4325C112.875 43.7544 112.008 43.9409 111.362 44.8393C110.784 45.6361 111.09 46.4329 111.753 46.9923C113.504 48.4841 115.407 49.8064 117.107 51.3491C124.229 57.8589 129.447 65.674 132.778 74.7266C132.863 74.947 132.727 75.2521 132.676 75.7607C127.458 75.7607 122.172 76.0319 116.954 75.6759C112.433 75.3538 109.271 71.4378 109.17 66.725C109.068 61.8427 109.237 56.9604 109.119 52.095C109.017 47.8569 108.371 43.8731 104.954 40.669C98.4956 34.6 87.9067 37.0242 84.9833 45.9921C84.3034 48.0773 83.5896 49.8912 82.0769 51.5864C79.6803 54.2819 78.8305 57.808 78.4736 61.3341C77.8107 68.2168 78.2356 75.0995 78.8305 81.9823C78.8815 82.5247 78.9835 83.0503 78.9835 83.5928C78.9835 88.848 79.3064 88.0343 74.8023 88.1021C73.5785 88.1191 72.3548 88.0682 71.131 88.1869C70.0942 88.2886 69.2954 88.8819 69.3974 90.0517C69.4824 91.0518 70.3152 91.2892 71.182 91.3231C72.1338 91.357 73.0857 91.34 74.0375 91.34C82.0599 91.34 90.0653 91.34 98.0877 91.34C99.0395 91.34 99.9913 91.357 100.943 91.3231C101.793 91.2892 102.643 91.0518 102.711 90.0347C102.796 88.8819 101.997 88.2547 100.96 88.1869C99.0565 88.0682 97.1529 88.0343 95.2663 88.1191C93.3456 88.2208 92.9207 87.2545 93.1417 85.627C94.1105 78.507 93.9065 71.3361 93.9405 64.1652C93.9405 61.012 93.3286 57.9775 92.2239 55.0617C91.408 52.8918 90.3372 50.7897 88.0937 49.7556C86.36 48.9588 86.598 47.8908 87.1079 46.4498C88.8415 41.6353 93.0057 39.1264 98.3087 39.8214C102.983 40.4487 106.552 44.2969 106.705 49.2979C106.875 54.4514 107.062 59.6219 106.671 64.7416C106.127 71.743 111.481 78.4392 119.996 78.3205C123.94 78.2697 127.883 78.3544 131.809 78.2866C133.39 78.2697 134.206 78.7274 134.63 80.4226C137.18 90.8993 137.01 101.291 134.104 111.666C133.56 113.65 132.574 114.175 130.67 114.141C124.144 114.056 117.634 114.073 111.107 114.141C109.543 114.141 108.456 113.921 108.49 112.039C108.49 111.666 108.286 111.242 108.048 110.92C105.6 107.597 102.065 109.106 98.9885 109.14C96.609 109.174 95.6232 110.785 95.6062 113.819C95.5552 125.076 95.5892 136.315 95.5892 147.571C95.5892 151.403 95.5892 151.42 91.8159 152.335C63.3126 159.252 34.8772 145.571 23.4045 119.464C13.8354 97.7142 16.5548 76.8626 31.2229 58.0623C41.081 45.4327 54.4063 38.4822 70.3662 36.5157C75.1083 35.9223 79.7823 35.702 84.5074 36.5326C85.4422 36.7021 86.394 36.7869 87.3458 36.7869C88.2297 36.7869 89.4024 37.1768 89.7424 35.9393C90.1503 34.3966 89.1645 33.5659 87.7707 33.549C85.5952 33.5151 85.5272 32.1928 85.5272 30.5823C85.5612 24.0725 85.5272 17.5628 85.5612 11.07C85.5782 8.37453 85.6462 8.37453 88.6886 8.37453C91.9859 8.37453 92.0369 8.37453 92.0709 11.2734C92.1219 15.4776 92.0709 19.6818 92.0879 23.8861C92.1049 27.5478 92.1219 27.5987 95.6912 28.5819C105.498 31.3282 114.319 35.9223 122.053 42.5338C132.183 51.1796 139.339 61.8257 143.265 74.591C143.333 74.8283 143.265 75.1165 143.265 75.7607L143.197 75.7437ZM86.0711 96.7987C81.329 96.7987 76.57 96.7987 71.8279 96.7987C70.6211 96.7987 69.5504 97.1547 69.5164 98.494C69.4824 99.8502 70.6211 100.24 71.7769 100.274C73.4086 100.325 75.0403 100.274 76.6549 100.308C79.7483 100.359 79.7823 100.427 80.0543 103.427C80.5812 109.462 81.0401 115.514 81.7369 121.532C82.1619 125.262 82.6548 129.025 84.0655 132.568C84.4564 133.552 84.9153 134.857 86.1221 134.755C87.2099 134.671 87.7877 133.552 88.1957 132.467C88.8585 130.687 89.2834 128.873 89.6404 127.008C91.0681 119.312 91.561 111.514 92.2579 103.732C92.5638 100.342 92.5468 100.359 95.9801 100.308C97.7308 100.274 99.4984 100.274 101.249 100.104C102.099 100.02 102.677 99.3077 102.694 98.3923C102.728 97.3751 101.997 97.0022 101.147 96.8835C100.348 96.7818 99.5154 96.8157 98.7166 96.8157C94.5014 96.8157 90.3032 96.8157 86.0881 96.8157L86.0711 96.7987ZM53.4545 72.6753C51.024 69.9968 49.1374 67.8778 47.2168 65.7757C46.8428 65.3519 46.265 65.1145 45.7721 65.4875C45.1432 65.9622 45.1262 66.6572 45.6701 67.2336C47.2508 68.9119 48.8314 70.5902 50.4971 72.1837C51.4829 73.1331 51.5679 73.862 50.5311 74.8453C48.9504 76.3201 47.4207 77.8798 45.942 79.4563C45.5171 79.9141 44.9902 80.643 45.4831 81.2364C46.18 82.067 46.9448 81.5415 47.5567 80.9651C49.4943 79.1003 51.3979 77.2356 53.8625 74.8283C55.8341 77.0491 57.6187 79.1003 59.4543 81.0838C60.0492 81.728 60.9161 82.0331 61.5619 81.2364C62.0888 80.5922 61.4939 79.9649 61.018 79.5072C59.0634 77.6594 57.0748 75.8285 54.8483 73.7773C57.1258 71.4717 59.0464 69.59 60.8991 67.6574C61.426 67.1149 62.2418 66.4707 61.409 65.6231C60.6101 64.8263 59.8623 65.4875 59.3354 66.0639C57.4997 68.0643 55.7321 70.1155 53.4545 72.6923V72.6753ZM54.8823 114.395C57.0068 112.412 58.8935 110.683 60.7291 108.903C61.256 108.394 62.2588 107.733 61.5109 106.953C60.6271 106.038 59.8793 106.902 59.1654 107.597C57.3468 109.377 55.7491 111.412 53.0466 113.192C51.262 111.208 49.4433 109.225 47.6417 107.225C47.1488 106.682 46.4349 106.309 45.874 106.784C45.0752 107.445 45.5171 108.276 46.112 108.886C47.6077 110.446 49.1204 112.005 50.7011 113.48C51.7549 114.446 51.6869 115.209 50.6671 116.142C49.0014 117.718 47.4037 119.379 45.7891 121.007C45.3981 121.414 45.1262 121.838 45.5681 122.38C45.993 122.923 46.5029 122.872 46.9618 122.516C47.5057 122.109 48.0156 121.651 48.4575 121.159C49.9872 119.464 51.4999 117.752 53.4885 115.514C55.7661 118.074 57.5507 120.108 59.3864 122.092C59.9302 122.685 60.6951 123.279 61.4599 122.465C62.2588 121.6 61.409 120.99 60.8821 120.431C59.0124 118.498 57.1088 116.616 54.8992 114.378L54.8823 114.395ZM32.8716 94.222C35.4721 91.8825 37.1888 90.3568 38.8714 88.7972C39.6533 88.0682 40.741 87.1358 39.6363 86.1017C38.6335 85.1524 37.9876 86.4916 37.4097 87.085C35.727 88.8141 34.1294 90.628 32.2937 92.6454C29.9482 90.3568 28.0446 88.4581 26.0899 86.6272C25.5121 86.0848 24.7472 85.5253 24.0334 86.4238C23.4895 87.1019 24.0334 87.7122 24.5093 88.153C26.5149 89.9669 28.5545 91.7299 31.087 93.9507C28.6224 96.1884 26.7018 97.8668 24.8492 99.6298C24.2203 100.24 23.2175 100.986 24.2883 101.935C25.3931 102.919 25.937 101.647 26.5489 101.071C27.9426 99.7824 29.3193 98.477 30.5771 97.07C31.6818 95.8324 32.4977 96.0359 33.5515 97.1547C35.1152 98.833 36.7978 100.41 38.4805 101.986C38.7184 102.207 39.3303 102.325 39.5683 102.173C40.0272 101.868 40.2481 101.206 39.9762 100.732C39.5853 100.054 39.0414 99.4094 38.4465 98.8839C36.8148 97.4599 35.1322 96.0867 32.8886 94.222H32.8716ZM53.3865 95.4425C55.6811 97.7142 57.5847 99.6298 59.5053 101.495C60.0662 102.054 60.7631 102.732 61.4939 101.732C62.0208 101.02 61.4599 100.562 60.9501 100.071C59.0294 98.2058 57.1428 96.2902 54.6613 93.8151C57.0408 91.713 59.1824 89.8652 61.273 87.9495C61.8169 87.4579 61.9529 86.7968 61.341 86.1865C60.6441 85.4745 60.0492 86.017 59.6413 86.4747C57.7207 88.5768 55.8681 90.7298 53.9644 92.8827C52.7407 91.8317 52.1118 91.34 51.5339 90.7806C50.4631 89.7465 49.4603 88.6276 48.3555 87.6444C47.6247 86.9832 46.8768 85.4067 45.823 86.3391C44.6163 87.3901 46.265 88.1191 46.8598 88.865C47.5397 89.6956 48.4065 90.3737 49.1374 91.1875C50.0042 92.1538 51.262 92.8319 51.7719 94.6966C50.0212 96.3241 48.1176 98.0702 46.265 99.8332C45.6701 100.393 45.0072 101.156 45.84 101.901C46.6049 102.58 47.3867 101.868 47.8966 101.342C49.6983 99.5111 51.3979 97.5955 53.3865 95.4595V95.4425Z" fill="#FE0404"/>
    <path d="M95.1471 155.217C95.3001 155.573 95.487 155.827 95.487 156.065C95.4021 162.184 96.8978 161.676 90.0141 162.913C74.4622 165.728 59.5392 163.609 45.5169 156.438C32.1236 149.572 22.0276 139.333 15.3309 125.754C10.6398 116.243 8.09033 106.224 8.09033 95.7138C8.09033 77.5407 14.1581 61.5884 26.6167 48.179C35.5059 38.6008 46.2988 32.1928 58.8253 28.5989C62.0717 27.6665 62.0717 27.6156 62.1056 24.0895C62.1396 19.7497 62.2076 15.4098 62.0717 11.0869C62.0037 8.90006 62.8365 8.1372 64.8931 8.37453C65.556 8.45929 66.2528 8.42539 66.9327 8.37453C68.1395 8.30672 68.6494 8.90006 68.6324 10.0698C68.6324 17.2576 68.6154 24.4285 68.6324 31.6164C68.6324 33.3286 67.5616 33.4134 66.2528 33.6507C56.3438 35.4138 47.3356 39.2959 39.3981 45.5005C24.2881 57.3164 15.8408 72.7262 14.821 91.9503C13.9032 109.106 19.3421 124.058 30.8318 136.857C41.0978 148.317 53.9473 154.912 69.1083 156.997C76.6548 158.048 84.1673 157.692 91.5948 155.844C92.7676 155.556 93.9573 155.42 95.1131 155.217H95.1471Z" fill="#FE0404"/>
    <path d="M109.288 155.929C112.62 152.776 115.985 149.657 119.299 146.487C126.727 139.383 134.12 132.246 141.531 125.126C142.806 123.906 144.335 122.906 145.372 121.532C147.854 118.21 151.1 117.515 154.992 117.871C157.882 118.125 160.822 117.922 163.695 117.922C163.695 118.65 163.797 119.023 163.695 119.142C154.924 127.568 146.137 135.959 137.367 144.401C134.052 147.588 130.789 150.843 127.577 154.149C125.588 156.2 123.447 157.319 120.438 157.065C116.971 156.777 113.452 156.997 109.968 156.997C109.747 156.641 109.526 156.285 109.305 155.946L109.288 155.929Z" fill="#FE0404"/>
    <path d="M148.449 78.7443C153.701 79.4224 156.641 82.4061 156.692 87.3732C156.777 95.4934 156.692 103.597 156.726 111.717C156.726 113.294 156.488 114.209 154.568 114.175C148.891 114.073 143.214 114.141 136.959 114.141C140.443 102.274 140.528 90.6111 137.843 79.0495C138.149 78.7782 138.319 78.4731 138.506 78.4561C145.525 78.3036 144.166 77.3881 145.321 83.7114C146.715 91.2892 146.681 98.9178 145.355 106.546C145.151 107.733 145.117 108.971 145.1 110.174C145.1 110.886 145.542 111.48 146.29 111.598C147.021 111.717 147.667 111.412 147.973 110.751C148.245 110.14 148.364 109.462 148.5 108.801C150.216 99.9858 150.318 91.1705 148.585 82.3383C148.364 81.1685 147.973 79.9649 148.466 78.7443H148.449Z" fill="#FE0404"/>
    <path d="M145.202 118.684C133.305 130.161 121.39 141.638 109.118 153.454C108.149 150.521 108.931 147.978 108.557 145.571C107.793 140.706 109.611 137.197 113.316 133.993C118.619 129.398 123.48 124.296 128.545 119.413C129.208 118.769 129.769 117.938 130.857 117.938C135.531 117.938 140.205 117.938 144.879 117.938C144.981 118.193 145.1 118.43 145.202 118.684Z" fill="#FE0404"/>
    <path d="M127.543 156.98C139.967 145.012 151.661 133.755 164.018 121.855C164.018 127.262 164.018 131.789 164.018 136.332C164.018 137.247 163.44 137.79 162.845 138.349C156.879 144.045 150.93 149.741 144.964 155.454C144.2 156.2 143.52 157.014 142.245 157.014C137.69 156.98 133.152 157.014 127.526 157.014L127.543 156.98Z" fill="#FE0404"/>
    <path d="M98.7845 137.4C98.7845 130.093 98.7675 122.787 98.8015 115.463C98.8015 114.463 98.2746 113.039 99.6513 112.649C101.198 112.209 102.915 112.192 104.461 112.717C105.294 113.005 105.073 114.124 105.09 114.921C105.09 118.311 105.09 121.685 105.09 125.075C105.09 136.315 105.107 147.555 105.056 158.777C105.056 159.862 105.821 161.472 104.206 161.964C102.677 162.439 100.926 162.456 99.3963 161.896C98.3595 161.506 98.7845 160.235 98.7845 159.336C98.7505 152.03 98.7845 144.723 98.7845 137.4Z" fill="#FE1010"/>
    <path d="M173.825 137.264C173.825 144.706 173.842 152.132 173.825 159.574C173.825 162.168 173.74 162.066 170.612 162.168C168.607 162.235 167.774 161.778 167.791 159.523C167.893 144.791 167.842 130.043 167.859 115.311C167.859 114.412 167.468 113.107 168.505 112.751C170 112.226 171.751 112.175 173.23 112.785C174.233 113.192 173.825 114.463 173.825 115.379C173.842 122.685 173.825 129.975 173.825 137.281V137.264Z" fill="#FE0404"/>
    <path d="M90.5241 71.726C90.5581 76.4557 90.1161 81.1516 89.8952 85.8644C89.8102 87.6444 89.2663 88.3394 87.5327 88.1191C87.2607 88.0852 86.9888 88.1191 86.7168 88.1191C82.2637 88.1699 82.4677 88.1699 82.1617 83.7114C81.7198 77.2356 81.6518 70.7767 81.6688 64.2839C81.6688 61.012 82.3147 57.8589 83.7594 54.8922C84.2523 53.892 84.7452 52.7731 85.952 52.7562C87.3287 52.7392 88.0596 53.892 88.5695 55.0108C89.5723 57.2316 90.0822 59.605 90.4051 62.0122C90.847 65.2502 90.5921 68.4881 90.5241 71.726ZM87.4647 65.0976C86.8868 63.7583 87.6346 61.4528 85.748 61.4867C84.0993 61.5206 84.1843 63.6058 84.1503 65.0467C84.0993 66.6403 84.1843 68.9627 85.799 68.9458C87.7196 68.9288 86.8528 66.386 87.4647 65.0976Z" fill="#FE0404"/>
    <path d="M108.558 135.247C108.558 129.67 108.558 124.94 108.558 120.193C108.558 119.074 108.507 117.938 110.104 117.922C115.458 117.922 120.812 117.922 127.118 117.922C120.472 123.855 115.373 129.907 108.558 135.247Z" fill="#FE1010"/>
    <path d="M146.987 157.014C152.375 150.708 158.069 146.029 163.881 140.367C164.221 143.825 164.102 146.707 164.034 149.572C163.983 151.945 165.105 154.912 163.423 156.539C161.91 157.997 159.037 156.946 156.777 157.014C153.836 157.099 150.896 157.031 146.987 157.031V157.014Z" fill="#FE1010"/>
    <path d="M86.088 127.432C84.8812 121.176 84.1504 114.921 83.8784 108.632C83.7764 106.343 82.9776 104.122 83.3005 101.8C83.6405 99.3416 85.5611 100.494 86.8358 100.308C87.9066 100.155 89.0794 100.155 88.9434 101.851C88.3145 110.395 87.7027 118.956 86.088 127.415V127.432Z" fill="#FE1010"/>
    </g>
    <defs>
    <clipPath id="clip0_677_7961">
    <rect width="182" height="172" fill="white"/>
    </clipPath>
    </defs>
    </svg>
    