<svg width="121" height="171" viewBox="0 0 121 171" fill="none" xmlns="http://www.w3.org/2000/svg">
    <g clip-path="url(#clip0_820_7636)">
    <path d="M60.5416 171C41.6288 171 22.7161 171 3.80333 171C-0.27018 171 2.08989e-06 170.979 0.0207853 167.151C0.0207853 164.808 0.0207853 162.466 0.0207853 160.144C2.08989e-06 155.437 0.103919 155.919 4.48918 155.919C41.8159 155.919 79.1426 155.919 116.469 155.919C117.301 155.919 118.132 155.96 118.963 155.919C120.48 155.856 121 156.672 121 158.073C120.979 161.754 120.958 165.415 121 169.096C121 170.707 120.106 171.042 118.776 170.979C117.612 170.937 116.448 170.979 115.285 170.979C97.0369 170.979 78.7892 170.979 60.5416 170.979V171Z" fill="#FE0404"/>
    <path d="M58.9828 46.2066C52.1867 46.2066 45.3698 46.102 38.5737 46.2484C35.9342 46.3112 35.1445 45.3699 35.186 42.7971C35.3315 35.6224 35.3107 28.4268 35.186 21.2521C35.1445 18.9094 35.8095 18.0308 38.2619 18.0308C52.2075 18.1145 66.153 18.1354 80.0778 18.0308C82.5094 18.0308 83.1953 18.8048 83.1537 21.1684C83.029 28.3431 83.1537 35.5387 83.0914 42.7134C83.0706 46.102 82.9875 46.1648 79.392 46.1857C72.5958 46.2275 65.7789 46.1857 58.9828 46.1857V46.2066Z" fill="#FE0404"/>
    <path d="M88.4535 152.593C80.6805 152.593 72.8868 152.488 65.1139 152.655C62.3913 152.718 61.6639 151.714 61.7886 149.204C61.9548 146.38 61.9133 143.535 61.7886 140.712C61.7054 138.578 62.4744 137.762 64.6566 137.825C69.4576 137.95 74.2585 137.867 79.0594 137.867C89.6589 137.867 100.258 137.846 110.837 137.867C114.578 137.867 114.599 137.93 114.661 141.737C114.703 144.393 114.578 147.07 114.703 149.727C114.807 151.923 113.913 152.635 111.793 152.614C104.02 152.53 96.2264 152.593 88.4535 152.593Z" fill="#FE0404"/>
    <path d="M57.05 137.762C57.0915 141.778 57.05 145.795 57.2162 149.79C57.2994 151.986 56.4265 152.655 54.3066 152.635C39.5297 152.572 24.7528 152.53 9.97595 152.635C7.37805 152.635 6.87925 151.547 6.98316 149.35C7.08708 147.175 7.00395 145 7.00395 142.824C7.00395 137.428 6.75455 137.846 11.7425 137.846C24.8567 137.846 37.9918 137.846 51.106 137.846C53.1012 137.846 55.0964 137.804 57.0915 137.783V137.741L57.05 137.762Z" fill="#FE0404"/>
    <path d="M59.4193 113.728C56.3226 108.436 53.6623 103.855 50.9189 99.295C50.1707 98.0609 50.2123 96.764 50.2123 95.4462C50.2123 87.4349 50.1915 79.4026 50.2123 71.3912C50.2123 67.6679 50.2954 67.647 54.1403 67.6051C57.9644 67.5633 61.7678 67.6679 65.5919 67.5633C67.5663 67.5005 68.1898 68.3163 68.1898 70.2198C68.1274 79.0679 68.1482 87.9369 68.1898 96.7849C68.1898 98.1864 67.7949 99.3996 67.1091 100.571C64.6774 104.734 62.2458 108.896 59.4193 113.728Z" fill="#FE0404"/>
    <path d="M59.1699 14.4121C55.034 14.4121 50.8981 14.3494 46.7623 14.433C44.8502 14.4749 44.1228 13.7009 44.1852 11.7765C44.2891 8.618 44.2683 5.45946 44.1852 2.28001C44.1436 0.522949 44.9957 -0.0209045 46.596 -0.0209045C55.034 0.0418478 63.472 0.0627652 71.91 1.28914e-05C73.6766 1.28914e-05 74.2169 0.75304 74.1546 2.3846C73.9675 6.19157 74.4663 9.99855 73.8428 13.7846C70.3305 15.1024 66.6934 14.0984 63.1395 14.3912C61.8301 14.4958 60.5 14.3912 59.1699 14.3912V14.4121Z" fill="#FE0404"/>
    <path d="M59.0452 64.593C55.5536 64.593 52.0828 64.4884 48.612 64.6349C46.3674 64.7395 45.7855 63.7773 45.8686 61.7064C45.9933 58.5479 45.9517 55.3684 45.8686 52.189C45.8478 50.3901 46.3466 49.4697 48.4042 49.4906C55.6991 49.5952 62.994 49.5743 70.2889 49.4906C72.2633 49.4906 72.8868 50.3483 72.8452 52.2099C72.7621 55.5567 72.7621 58.8826 72.8452 62.2294C72.8868 63.9446 72.1594 64.6139 70.4967 64.593C66.6934 64.5512 62.8693 64.593 59.066 64.593H59.0452Z" fill="#FE0404"/>
    <path d="M57.0708 137.804C57.7358 137.511 57.8813 137.093 57.8605 136.319C57.7774 130.985 57.7774 125.651 57.7982 120.338C57.7982 119.188 57.9021 118.016 58.0891 116.887C58.2138 116.155 58.8789 115.757 59.5647 115.862C59.9596 115.924 60.3753 116.426 60.5831 116.824C60.791 117.242 60.8533 117.765 60.8533 118.267C60.8533 123.768 60.8533 129.27 60.8949 134.75C60.8949 136.172 60.4584 136.967 58.9413 136.926C58.1931 136.905 57.2578 136.57 57.05 137.783L57.0915 137.825L57.0708 137.804Z" fill="#FE1010"/>
    <path d="M30.78 117.681C31.1125 117.87 31.6321 118.016 31.9646 118.351C34.5417 120.945 37.0773 123.538 39.6336 126.174C40.2987 126.864 40.3195 127.701 39.7375 128.412C39.0725 129.228 38.158 129.793 37.1604 129.061C33.9182 126.718 31.3203 123.706 28.6601 120.756C28.2029 120.254 28.1821 119.543 28.6601 118.937C29.1797 118.267 29.7824 117.723 30.8008 117.681H30.78Z" fill="#FE1010"/>
    <path d="M80.8676 129.437C79.5582 129.625 78.2904 127.868 79.1426 126.697C81.4703 123.476 84.3384 120.714 87.4351 118.225C88.1209 117.661 89.0146 117.87 89.6381 118.581C90.1161 119.125 90.2824 119.899 89.8875 120.443C87.4766 123.831 84.4007 126.571 81.3248 129.291C81.2209 129.395 81.013 129.395 80.8676 129.437Z" fill="#FE1010"/>
    <path d="M84.8164 106.7C84.6086 107.181 84.5046 107.704 84.1929 108.039C82.2185 110.068 80.2441 112.097 78.2073 114.042C77.3552 114.837 76.3784 114.732 75.5886 113.833C74.9236 113.059 75.1106 112.264 75.7549 111.615C77.7293 109.607 79.7245 107.578 81.782 105.654C82.3432 105.131 83.1953 104.65 83.9643 105.445C84.2968 105.779 84.5046 106.24 84.8164 106.7Z" fill="#FE1010"/>
    <path d="M43.2707 113.247C42.9797 114.251 42.2939 114.711 41.4418 114.084C38.9062 112.201 36.5785 110.109 34.5417 107.662C34.1053 107.139 34.0014 106.407 34.4586 105.842C34.8743 105.34 35.4978 104.838 36.142 105.34C38.7607 107.348 41.1508 109.649 43.1668 112.306C43.333 112.515 43.2499 112.933 43.2707 113.247Z" fill="#FE1010"/>
    </g>
    <defs>
    <clipPath id="clip0_820_7636">
    <rect width="121" height="171" fill="white"/>
    </clipPath>
    </defs>
    </svg>
    