<svg width="231" height="172" viewBox="0 0 231 172" fill="none" xmlns="http://www.w3.org/2000/svg">
    <g clip-path="url(#clip0_820_7650)">
    <path d="M115.719 85.8305C134.531 85.8305 153.322 85.8305 172.133 85.8305C176.881 85.8305 176.442 85.4714 176.442 90.2387C176.442 115.89 176.442 141.561 176.442 167.213C176.442 172.499 176.661 171.98 171.933 171.98C134.331 171.98 96.7288 171.98 59.1264 171.98C58.3285 171.98 57.5306 171.92 56.7326 171.98C55.0171 172.1 54.5184 171.162 54.5782 169.646C54.6181 168.848 54.5782 168.051 54.5782 167.253C54.5782 141.601 54.5782 115.93 54.5782 90.2786C54.5782 85.272 54.1194 85.8305 59.306 85.8305C78.1171 85.8305 96.9083 85.8305 115.719 85.8305Z" fill="#FE0404"/>
    <path d="M115.141 45.9571H7.04171C6.24379 45.9571 5.44586 45.9571 4.64793 45.9571C-0.498702 45.8973 0.0398991 46.5156 0.0398991 41.3694C0.0398991 36.4226 -0.0598418 31.4758 0.219433 26.549C0.977464 12.2672 13.2057 1.1968 26.0723 0.518613C30.5008 0.2992 34.9293 0 39.3777 0C92.1606 0 144.944 0 197.706 0.0398933C203.092 0.0398933 208.459 0.438826 213.585 2.51328C223.719 6.62229 230.86 16.8749 230.96 27.7458C231 33.0117 230.9 38.2776 231 43.5435C231.04 45.3986 230.362 46.1566 228.506 45.997C227.389 45.8972 226.272 45.997 225.155 45.997C188.49 45.997 151.806 45.997 115.141 45.997V45.9571ZM44.3648 25.4519C44.3648 20.4254 41.9045 17.9121 36.9839 17.9121C32.356 17.9121 30.042 20.2791 30.042 25.0131C30.042 30.0397 32.5288 32.5529 37.5026 32.5529C42.0907 32.5529 44.3847 30.1859 44.3847 25.4519H44.3648ZM69.2402 25.3522C69.2402 24.3948 69.2402 23.4373 69.2402 22.4998C69.1803 17.3536 69.7788 17.9719 64.6521 17.9121C64.3329 17.9121 64.0137 17.9121 63.6946 17.9121C61.1811 18.0517 57.9894 16.8749 56.3137 18.3709C54.3788 20.1062 55.6355 23.4373 55.5757 26.0703C55.456 32.5529 55.5358 32.5529 62.0389 32.5529C66.8397 32.5529 69.2402 30.1527 69.2402 25.3522Z" fill="#FE0404"/>
    <path d="M115.5 58.3839C151.866 58.3839 188.231 58.3839 224.577 58.3839C225.534 58.3839 226.492 58.3839 227.449 58.3839C230.86 58.4636 230.92 58.4636 230.96 61.7548C231 67.659 230.96 73.5633 230.96 79.4675C230.96 89.5206 230.96 99.5737 230.96 109.607C230.96 112.878 230.88 112.938 227.509 112.958C215.859 112.978 204.23 112.938 192.58 112.998C190.505 112.998 189.368 112.738 189.428 110.205C189.588 103.024 189.588 95.8437 189.428 88.6828C189.368 86.2493 190.326 85.5512 192.5 85.8504C192.819 85.8903 193.138 85.8504 193.458 85.8504C198.032 85.7972 200.32 83.397 200.32 78.6496C200.32 74.5273 198.199 72.4662 193.956 72.4662C141.333 72.4662 88.6896 72.4662 36.0663 72.4662C29.8824 72.4662 30.6803 71.6284 30.6803 77.6723C30.6803 80.2055 29.6231 83.3172 31.1591 85.1124C32.7749 87.0073 35.9666 85.7507 38.4601 85.7706C40.6145 85.7706 41.592 86.2094 41.5321 88.6629C41.3725 95.8437 41.4324 103.024 41.5122 110.205C41.5321 112.18 41.0334 113.038 38.879 113.018C26.7505 112.938 14.642 112.938 2.51347 113.018C0.239378 113.018 0 111.921 0 110.086C0.0398964 100.032 0.0199482 89.9794 0.0199482 79.9462C0.0199482 73.8824 -0.0199482 67.8186 0.0199482 61.7548C0.0398964 58.4636 0.0997408 58.4038 3.53083 58.4038C13.2655 58.3639 22.9803 58.4038 32.715 58.4038C60.3034 58.4038 87.8917 58.4038 115.48 58.4038L115.5 58.3839Z" fill="#FE0404"/>
    </g>
    <defs>
    <clipPath id="clip0_820_7650">
    <rect width="231" height="172" fill="white"/>
    </clipPath>
    </defs>
    </svg>
    