<svg width="210" height="139" viewBox="0 0 210 139" fill="none" xmlns="http://www.w3.org/2000/svg">
    <g clip-path="url(#clip0_820_7654)">
    <path d="M89.5013 100.725C85.2625 104.94 81.1917 108.671 77.513 112.737C70.6413 120.385 61.8088 123.071 51.9679 123.276C38.4671 123.537 25.8627 119.862 13.725 114.248C9.6729 112.383 5.60212 110.499 2.11022 107.645C-0.448027 105.556 -0.504047 105.388 0.952471 102.441C3.51071 97.2366 6.23702 92.1071 8.73924 86.8657C11.2601 81.6056 15.555 77.8564 19.7191 74.0699C22.931 71.1415 24.8356 68.0824 24.1074 63.6617C23.6592 60.9198 24.817 58.7934 26.871 56.984C28.5329 55.5105 30.1202 53.8877 31.5954 52.2276C33.2946 50.325 33.0332 49.1499 30.699 48.9447C24.6115 48.4224 18.7855 46.5758 12.754 45.7924C7.2018 45.0836 4.42571 41.9624 4.42571 36.4288C4.42571 31.8029 4.53775 27.177 4.38836 22.5698C4.31367 19.9957 5.07927 18.0185 6.92793 16.2279C11.951 11.3595 16.8995 6.37924 21.7359 1.32435C22.9683 0.037315 24.3128 -0.111907 25.7506 0.0559677C28.9811 0.391717 32.2303 0.839382 35.4234 1.41762C54.1901 4.86837 72.9567 8.37508 91.7047 11.9004C95.4581 12.6092 95.7195 13.0009 95.7569 16.918C95.7942 20.1636 95.7569 23.4092 95.7569 26.6361C97.3441 27.1211 97.7922 25.9273 98.4832 25.2744C100.537 23.3159 102.517 21.2828 104.515 19.2869C109.202 14.6237 109.183 14.661 115.439 15.8362C127.931 18.2051 140.423 20.574 152.935 22.8496C164.269 24.92 175.174 28.091 184.772 34.7873C198.908 44.6359 207.498 57.7488 209.589 75.1518C210.859 85.7279 209.141 95.4832 203.801 104.586C202.456 106.861 200.663 108.932 198.815 110.834C193.082 116.71 187.275 122.492 181.43 128.256C175.249 134.337 167.593 137.06 159.153 138.403C148.191 140.138 137.622 137.862 126.997 135.96C116.223 134.038 105.448 132.043 94.6551 130.084C91.6674 129.537 90.1673 127.74 90.1549 124.693C90.1549 118.277 90.1549 111.86 90.1549 105.462C90.1549 104.175 90.435 102.832 89.52 100.743L89.5013 100.725ZM94.207 36.8764C94.0202 37.8837 93.9082 38.1635 93.9082 38.4619C93.9082 66.6275 93.8708 94.7744 93.8895 122.94C93.8895 126.167 93.9829 126.092 97.4748 126.727C107.073 128.443 116.634 130.401 126.269 131.912C136.875 133.591 147.333 136.426 158.35 134.691C171.944 132.565 182.009 126.111 186.528 112.793C188.918 105.742 189.403 98.3744 188.134 90.876C186.154 79.1994 181.057 69.2762 172.485 61.1436C164.064 53.1602 153.831 48.6463 142.702 45.8857C133.365 43.5727 123.842 42.2111 114.374 40.495C107.708 39.2826 101.023 38.0888 94.2443 36.8764H94.207ZM4.29499 104.66C8.79526 107.44 13.1835 109.547 17.6464 111.581C30.0268 117.195 42.8554 120.161 56.4682 118.874C65.4874 118.016 73.1061 114.658 77.0649 105.705C80.7248 97.4418 79.287 84.5901 72.0231 76.9798C68.4752 73.2679 64.4417 70.3394 59.9414 67.9518C56.1881 65.956 56.0761 65.3591 59.0638 62.7291C62.6304 59.6141 66.253 56.5177 69.9877 53.6079C72.9567 51.3136 75.0482 48.8701 74.3759 44.7292C74.0024 42.4163 74.3199 39.9728 74.3012 37.5852C74.3012 33.3511 74.2825 33.3697 70.1931 32.6049C68.5872 32.3065 67.0186 31.8588 65.4314 31.5604C54.3768 29.5832 43.3035 27.6247 32.2303 25.6475C25.2464 24.3978 18.2626 23.1294 11.2601 21.9356C8.40312 21.4506 8.21639 21.6372 8.17904 24.5656C8.12302 28.8931 8.08567 33.2205 8.17904 37.5293C8.25373 40.5697 8.77659 41.1852 11.6896 41.7448C16.7688 42.7147 21.8852 43.5354 26.9831 44.4308C30.7551 45.1023 34.5271 45.867 38.3178 46.4639C39.7183 46.6877 41.1188 46.9116 41.4549 48.4224C41.7536 49.7841 40.4092 50.4742 39.5689 51.239C37.16 53.4214 34.8072 55.753 32.1182 57.5809C28.9064 59.782 27.0951 62.2814 27.6926 66.3664C28.0474 68.8472 27.7487 71.4212 27.7673 73.958C27.8047 77.7632 27.8234 77.7259 31.5393 78.3974C36.6372 79.3113 41.735 80.3186 46.478 82.5756C50.0072 84.2543 52.1547 88.2646 51.4451 91.6781C50.8289 94.6066 47.9345 96.6957 44.1438 97.1993C39.8116 97.7775 35.6288 97.1433 31.5393 95.7444C26.0307 93.8791 20.6902 91.6967 15.7604 88.5444C13.2769 86.959 13.1275 87.0522 11.8577 89.5703C9.35546 94.4573 6.92793 99.4003 4.31367 104.642L4.29499 104.66ZM90.0428 40.7375C89.7814 40.551 89.52 40.3458 89.2585 40.1593C87.1298 42.3603 84.9824 44.5427 82.8909 46.7997C82.2747 47.4525 81.6959 48.4411 82.6669 49.1126C85.001 50.754 86.8684 53.1789 90.0428 53.9623V40.7562V40.7375Z" fill="#FE0404"/>
    <path d="M121.507 86.3621C121.507 79.6657 121.47 72.9508 121.507 66.2544C121.526 63.4192 122.049 62.5985 124.42 62.9343C133.178 64.184 142.16 64.8368 149.685 70.3953C155.829 74.9466 159.601 80.8409 160.404 88.5631C161.02 94.5506 160.758 100.408 157.509 105.612C153.345 112.271 146.772 114.211 139.378 113.502C134.691 113.054 130.041 112.047 125.41 111.133C121.694 110.405 121.545 110.163 121.526 106.47C121.489 99.7734 121.526 93.0584 121.526 86.3621H121.507ZM156.258 92.2563C157.528 83.359 150.712 72.9321 142.851 71.7756C142.851 76.9984 142.869 82.2025 142.851 87.388C142.851 88.9921 143.448 89.8128 145.073 90.0926C148.714 90.7268 152.337 91.4916 156.258 92.2563Z" fill="#FE0404"/>
    </g>
    <defs>
    <clipPath id="clip0_820_7654">
    <rect width="210" height="139" fill="white"/>
    </clipPath>
    </defs>
    </svg>
    