<svg width="233" height="133" viewBox="0 0 233 133" fill="none" xmlns="http://www.w3.org/2000/svg">
    <g clip-path="url(#clip0_820_7668)">
    <path d="M31.5815 123.086C34.2825 119.556 36.7412 116.805 39.3037 114.124C41.7797 111.528 43.5804 108.656 43.5804 104.659C43.6323 81.2845 43.9613 57.9096 44.0305 34.5174C44.0305 29.6902 45.4503 25.2436 46.8355 20.797C47.9609 17.1809 50.056 15.9351 54.1075 16.2119C63.6305 16.8521 73.1707 16.4542 82.6763 17.0424C89.8618 17.4923 97.0473 17.302 104.215 17.6134C119.816 18.2709 135.433 18.4958 151.034 19.0149C157.873 19.2398 164.747 19.2052 171.724 19.6377C167.101 26.5585 167.032 26.5585 167.015 35.8842C166.963 61.3354 166.98 86.8038 166.997 112.255C166.997 119.141 164.989 125.474 162.184 131.668C161.422 133.346 160.245 133.035 159.119 132.896C153.683 132.256 148.229 131.737 142.74 131.443C135.485 131.062 128.265 130.093 121.01 129.592C117.305 129.332 113.583 129.003 109.895 128.899C105.341 128.778 100.787 128.329 96.3201 127.879C89.0999 127.152 81.8279 127.048 74.6251 125.958C71.5258 125.491 68.3053 125.422 65.1541 125.404C60.5831 125.37 56.0814 124.712 51.545 124.487C45.1387 124.159 38.7496 123.207 31.5988 123.086H31.5815Z" fill="#FE0404"/>
    <path d="M184.727 16.2119C183.463 15.1392 181.922 15.2603 180.416 15.2257C158.427 14.6374 136.438 14.1011 114.448 13.4436C90.5197 12.7342 66.6085 11.9383 42.6627 11.6615C35.9447 11.575 29.1748 11.3501 22.4394 11.0386C20.1366 10.9348 18.8034 11.7653 17.8338 13.6685C16.6911 15.8659 15.531 18.0459 14.3363 20.2779C15.6695 21.8696 17.4356 21.7485 19.1497 21.7485C25.2444 21.7485 31.3217 21.7312 37.4164 21.7485C38.7669 21.7485 40.1867 21.4371 41.7104 22.2503C40.5503 26.1951 40.9312 30.313 40.9139 34.3962C40.8447 58.048 40.7408 81.6997 40.8447 105.369C40.8447 108.795 39.9789 111.2 36.9836 112.826C36.1351 113.276 35.2521 113.795 34.6461 114.504C31.8758 117.792 28.3783 116.58 25.0539 116.079C23.5822 115.854 23.0108 113.795 23.9631 112.341C24.6384 111.321 25.5907 110.456 26.5603 109.694C28.9324 107.808 31.3737 106.009 33.7977 104.227C35.3214 103.102 36.1352 101.805 36.1352 99.7284C36.0659 78.8449 36.1005 57.9442 36.0659 37.0607C36.0659 34.2405 35.9793 34.0675 33.0012 34.1886C25.8158 34.4655 18.6995 32.9256 11.5141 33.4446C9.34976 33.6004 8.18969 32.3546 6.7526 30.9705C5.57522 29.8285 3.18583 31.2992 1.66216 29.9323C0.20775 28.6347 -0.259739 26.9564 0.0519207 25.0532C0.51941 22.1811 1.40244 19.4647 2.68371 16.8694C4.20738 13.7723 5.73105 10.6753 7.34129 7.61285C9.97308 2.68179 13.9554 0.0518999 19.6691 0.13841C27.0105 0.242221 34.3864 -0.311441 41.6584 0.276825C52.151 1.14192 62.6608 0.242221 73.1014 0.968903C82.6416 1.62638 92.1992 0.813185 101.687 1.53987C112.319 2.37036 122.984 1.40145 133.563 2.26655C143.381 3.07974 153.198 2.12813 162.929 2.95863C173.421 3.85833 183.948 2.80291 194.372 3.71991C203.635 4.5331 212.846 4.04865 222.092 4.27357C224.204 4.32548 226.282 4.60231 228.135 5.3982C231.078 6.66124 233.035 8.82398 233 12.3882C232.913 19.8626 232.931 27.3371 233 34.7942C233.017 36.6455 232.515 38.3411 232.03 40.0367C231.39 42.3205 229.71 43.8604 227.39 44.3276C222.802 45.2446 218.213 45.556 213.487 44.639C210.543 44.068 207.427 44.4833 204.379 44.4314C203.029 44.4141 202.319 45.0023 202.336 46.3865C202.336 47.217 202.319 48.0475 202.319 48.878C202.319 64.5016 202.319 80.1426 202.319 95.7662C202.319 96.5967 202.353 97.4272 202.336 98.2577C202.319 99.6419 202.977 100.282 204.362 100.23C204.5 100.23 204.639 100.23 204.777 100.23C206.492 100.507 209.193 99.3304 209.712 101.078C210.491 103.673 210.924 106.701 208.968 109.366C204.327 115.663 199.774 122.031 195.272 128.432C193.869 130.439 191.896 129.972 190.026 129.989C185.489 130.024 184.502 128.519 186.338 124.263C187.55 121.46 189.523 119.124 191.203 116.598C191.809 115.681 192.467 114.781 192.934 113.795C194.493 110.456 193.731 109.158 190.129 109.141C184.173 109.106 178.234 109.141 172.278 109.123C169.058 109.106 169.058 109.071 169.006 105.974C169.006 105.421 169.058 104.867 169.006 104.313C168.729 102.012 169.958 101.562 171.967 101.597C176.815 101.701 181.645 101.632 186.493 101.632C187.879 101.632 189.264 101.666 190.649 101.632C193.506 101.545 193.54 101.528 193.575 98.5345C193.627 95.351 193.575 92.1674 193.575 88.9839C193.575 75.5576 193.575 62.1486 193.575 48.7222C193.575 47.7533 193.54 46.7844 193.575 45.8155C193.627 44.2584 192.882 43.5663 191.359 43.4798C187.359 43.2548 183.36 42.978 179.343 42.7531C176.849 42.6147 174.373 42.5282 171.88 42.407C171.066 42.3724 170.027 42.4762 169.906 41.3862C169.421 37.0607 168.019 32.7007 170.305 28.4098C171.17 26.8007 172.001 25.503 174.027 25.9356C180.208 27.2678 182.719 23.7383 184.087 18.5304C184.295 17.7518 184.849 17.0597 184.727 16.1427V16.2119Z" fill="#FE0404"/>
    </g>
    <defs>
    <clipPath id="clip0_820_7668">
    <rect width="233" height="133" fill="white"/>
    </clipPath>
    </defs>
    </svg>
    