<svg width="159" height="206" viewBox="0 0 159 206" fill="none" xmlns="http://www.w3.org/2000/svg">
    <g clip-path="url(#clip0_826_8595)">
    <path d="M158.994 89.606C158.989 89.4479 158.949 89.2908 158.928 89.1504C158.828 89.1033 158.767 89.0561 158.701 89.0453C158.076 88.9452 157.451 88.85 156.825 88.7547C156.617 88.7233 156.406 88.6988 156.198 88.6664C155.665 88.5829 155.134 88.4896 154.6 88.4121C153.928 88.3139 153.253 88.2294 152.581 88.1342C152.418 88.1116 152.259 88.0665 152.097 88.037C151.845 87.9918 151.591 87.9447 151.336 87.9094C151.011 87.8642 150.682 87.8397 150.358 87.7866C149.526 87.6512 148.699 87.4833 147.864 87.3694C146.587 87.1946 145.308 87.0463 144.041 86.7989C143.146 86.6242 142.23 86.5603 141.325 86.4337C140.885 86.3718 140.45 86.2687 140.01 86.2079C139.104 86.0812 138.196 85.9771 137.29 85.8475C136.966 85.8014 136.652 85.6895 136.328 85.6423C135.471 85.5196 134.609 85.4185 133.751 85.3026C133.18 85.2251 132.972 85.0317 132.829 84.4877C132.681 83.9202 132.543 83.3478 132.366 82.7892C131.95 81.4676 131.516 80.152 131.086 78.8344C130.561 77.2242 129.931 75.6533 129.266 74.0981C128.314 71.8693 127.207 69.7142 126.07 67.5758C125.685 66.8503 125.292 66.1286 124.878 65.3608C124.996 65.1753 125.112 64.973 125.247 64.7875C125.899 63.894 126.556 63.0045 127.214 62.1149C128.682 60.1277 130.154 58.1435 131.62 56.1543C133.421 53.7105 135.218 51.2638 137.016 48.8191C138.02 47.4544 139.024 46.0896 140.026 44.7239C140.15 44.556 140.312 44.4058 140.316 44.1299C140.251 44.0475 140.173 43.9306 140.077 43.8334C139.781 43.531 139.476 43.2365 139.177 42.937C132.695 36.4423 126.214 29.9475 119.733 23.4528C119.55 23.2692 119.371 23.0816 119.179 22.9088C118.971 22.7223 118.848 22.7193 118.612 22.8735C118.534 22.9245 118.463 22.9884 118.388 23.0443C116.855 24.1734 115.319 25.2996 113.788 26.4316C111.463 28.1508 109.142 29.8749 106.817 31.594C104.681 33.1738 102.543 34.7496 100.407 36.3274C99.6498 36.886 98.8932 37.4447 98.1423 38.0093C97.9368 38.1634 97.7596 38.2233 97.5041 38.0839C95.9173 37.2179 94.3286 36.3549 92.7271 35.5184C91.7707 35.0196 90.8183 34.513 89.8071 34.1242C88.7567 33.7197 87.7279 33.2602 86.6834 32.8419C85.9218 32.5376 85.1671 32.19 84.3781 31.9877C83.3512 31.7246 82.3919 31.2798 81.3758 30.9961C81.0156 30.896 80.6583 30.7811 80.2971 30.6829C79.7332 30.5287 79.1694 30.3697 78.5997 30.2371C78.1063 30.1213 77.9644 29.9995 77.8861 29.5057C77.7901 28.9009 77.6991 28.2961 77.61 27.6903C77.424 26.4336 77.241 25.1759 77.0579 23.9181C77.0374 23.7787 77.0286 23.6373 77.01 23.4969C76.8905 22.5868 76.7691 21.6776 76.6478 20.7685C76.638 20.6987 76.6164 20.63 76.6067 20.5603C76.544 20.1421 76.4814 19.7238 76.4216 19.3046C76.3952 19.118 76.3795 18.9305 76.3531 18.7439C76.2826 18.255 76.2102 17.767 76.1378 17.2791C76.1104 17.0925 76.0839 16.906 76.0546 16.7204C75.9048 15.769 75.7462 14.8186 75.6082 13.8662C75.4702 12.9129 75.3527 11.9556 75.2264 11.0003C75.2205 10.9542 75.2029 10.909 75.1961 10.8629C75.0463 9.93503 74.8955 9.00819 74.7497 8.07939C74.7281 7.93997 74.7321 7.79761 74.7184 7.65622C74.6998 7.4687 74.6998 7.27429 74.6469 7.09658C74.504 6.61647 74.4815 6.1236 74.4384 5.63072C74.3963 5.13883 74.2749 4.66461 74.0674 4.16879C64.0122 4.12755 53.9677 4.0873 43.9458 4.04606C43.6198 4.46726 43.6874 4.9837 43.4358 5.47756C43.2684 5.3941 43.1588 5.35581 43.0677 5.292C42.5861 4.95719 42.1143 4.60963 41.6307 4.27679C40.2701 3.3421 38.7841 2.64304 37.2825 1.97736C36.3192 1.55027 35.3188 1.22038 34.3106 0.920924C33.8397 0.781505 33.3581 0.67645 32.8784 0.571395C32.4898 0.485976 32.0992 0.402522 31.7047 0.354412C31.0068 0.268012 30.3098 0.18063 29.6246 0.0166656C29.513 -0.00984364 29.3906 0.000956399 29.2732 0.000956399C27.7226 0.000956399 26.173 0.000956398 24.6224 0.00586551C24.412 0.00586551 24.1995 0.0245201 23.993 0.0618294C23.1639 0.211066 22.3416 0.415285 21.5066 0.516413C20.5443 0.632268 19.6301 0.92976 18.7158 1.20074C17.823 1.46583 16.9675 1.8674 16.1109 2.24246C14.6906 2.86395 13.3123 3.56693 12.0515 4.48199C11.6716 4.7569 11.3104 5.0593 10.9159 5.31163C10.1181 5.8212 9.42703 6.46331 8.73691 7.0956C7.4526 8.27281 6.32198 9.59336 5.28337 10.9983C4.03136 12.691 3.02016 14.5133 2.17636 16.4357C2.09119 16.6291 2.01876 16.8284 1.95023 17.0287C1.57629 18.1215 1.35213 19.2525 1.08783 20.3738C0.866595 21.3124 0.683542 22.2618 0.438818 23.1945C0.317435 23.656 0.245976 24.1155 0.236187 24.5868C0.217588 25.5057 0.194094 26.4247 0.193115 27.3427C0.185284 31.8198 0.186263 36.297 0.18039 40.7731C0.167664 50.4332 0.152002 60.0944 0.138297 69.7545C0.131445 74.5379 0.128508 79.3214 0.122635 84.1038C0.116762 88.8401 0.110888 93.5764 0.105015 98.3118C0.10012 103.189 0.0962048 108.067 0.0913104 112.945C0.0864159 117.634 0.0795636 122.323 0.0746691 127.011C0.0697747 131.889 0.0648802 136.767 0.0609646 141.644C0.0560701 147.888 0.0521545 154.132 0.0472601 160.376C0.0472601 160.682 0.075648 160.994 0.0276822 161.293C-0.0525872 161.79 0.106973 162.212 0.325266 162.639C1.55672 165.048 2.77838 167.464 4.00591 169.876C7.28325 176.313 10.5626 182.747 13.8409 189.183C15.5813 192.6 17.3179 196.019 19.0584 199.436C20.0833 201.448 21.1199 203.455 22.1321 205.474C22.3152 205.838 22.5511 206.022 22.9534 205.993C23.0464 205.986 23.1414 205.993 23.2353 205.993C25.8196 205.993 28.4029 205.993 30.9872 205.992C31.2192 205.992 31.4522 205.976 31.6989 205.968C32.1844 205.245 32.5104 204.461 32.898 203.712C33.2984 202.94 33.6811 202.157 34.0727 201.38C34.4535 200.624 34.8362 199.868 35.218 199.112C35.5998 198.356 35.9835 197.601 36.3662 196.845C36.7588 196.069 37.1513 195.293 37.5448 194.517C37.9276 193.762 38.3093 193.006 38.6921 192.251C39.0856 191.475 39.4703 190.693 39.8785 189.925C40.2701 189.186 40.599 188.414 41.0512 187.637C41.1452 187.767 41.2294 187.831 41.2441 187.909C41.3478 188.44 41.4408 188.973 41.5299 189.506C41.5691 189.738 41.5877 189.973 41.6229 190.205C41.6826 190.6 41.7482 190.995 41.8128 191.389C41.8549 191.645 41.9009 191.899 41.943 192.154C41.9968 192.478 42.0477 192.803 42.0996 193.128C42.1486 193.43 42.1985 193.73 42.2465 194.032C42.2944 194.334 42.3424 194.635 42.3845 194.939C42.4138 195.149 42.4217 195.362 42.4569 195.57C42.6067 196.45 42.7751 197.328 42.915 198.209C43.056 199.092 43.1627 199.979 43.3017 200.862C43.4593 201.862 43.6365 202.858 43.8049 203.856C43.8655 204.217 43.9292 204.275 44.3139 204.296C44.4548 204.303 44.5958 204.298 44.7368 204.299C46.6632 204.317 48.5887 204.337 50.5152 204.352C54.1087 204.382 57.7032 204.406 61.2967 204.439C63.2222 204.457 65.1487 204.491 67.0742 204.509C69.2356 204.528 71.396 204.538 73.5574 204.549C73.7395 204.549 73.9225 204.516 74.1066 204.5C74.3327 204.042 74.3983 203.579 74.458 203.112C74.5118 202.692 74.5882 202.276 74.6381 201.856C74.735 201.038 74.8349 200.221 75.0218 199.417C75.0531 199.28 75.0404 199.135 75.059 198.995C75.0894 198.761 75.1285 198.529 75.1618 198.297C75.2156 197.924 75.2675 197.551 75.3204 197.178C75.3537 196.946 75.385 196.712 75.4202 196.48C75.4868 196.038 75.5553 195.598 75.6238 195.157C75.6601 194.924 75.6973 194.692 75.7354 194.46C75.8764 193.602 76.0203 192.744 76.1583 191.886C76.1808 191.747 76.174 191.604 76.1896 191.463C76.2131 191.253 76.2376 191.042 76.2729 190.833C76.4148 189.975 76.5616 189.118 76.7055 188.259C76.7134 188.213 76.7143 188.165 76.7212 188.119C76.7917 187.63 76.8749 187.143 76.9307 186.652C77.0178 185.88 77.0951 185.109 77.2909 184.354C77.3144 184.264 77.3036 184.166 77.3154 184.073C77.4201 183.234 77.5258 182.393 77.6345 181.554C77.6462 181.46 77.6834 181.371 77.6991 181.279C77.7627 180.885 77.8371 180.492 77.8792 180.096C77.934 179.58 78.0358 179.08 78.2326 178.594C78.494 178.501 78.7318 178.402 78.9785 178.331C80.1483 177.995 81.321 177.67 82.4918 177.337C82.807 177.246 83.1232 177.155 83.4296 177.039C84.568 176.606 85.6986 176.155 86.839 175.726C88.9476 174.934 90.9827 173.975 93.0041 172.988C94.5224 172.247 96.0142 171.453 97.4444 170.549C97.6784 170.402 97.8722 170.402 98.0875 170.565C98.4996 170.877 98.9166 171.184 99.3317 171.491C100.597 172.427 101.866 173.359 103.13 174.298C104.111 175.026 105.083 175.767 106.065 176.494C108.048 177.963 110.036 179.425 112.022 180.891C114.064 182.398 116.106 183.907 118.15 185.41C118.296 185.518 118.467 185.593 118.653 185.698C118.845 185.522 119.021 185.37 119.188 185.208C124.129 180.402 129.072 175.598 134.008 170.787C135.996 168.85 137.972 166.899 139.947 164.95C140.125 164.774 140.358 164.631 140.42 164.351C140.32 164.209 140.229 164.071 140.131 163.94C138.873 162.235 137.616 160.531 136.356 158.829C134.48 156.295 132.6 153.764 130.725 151.23C129.353 149.376 127.985 147.521 126.615 145.665C126.099 144.965 125.579 144.266 125.067 143.562C124.838 143.247 124.845 143.193 125.047 142.87C125.921 141.474 126.689 140.018 127.405 138.536C128.336 136.612 129.236 134.673 130.006 132.674C130.497 131.402 130.981 130.13 131.415 128.838C131.662 128.103 131.914 127.37 132.136 126.628C132.379 125.818 132.6 125.001 132.811 124.181C132.977 123.532 133.14 123.353 133.789 123.247C134.02 123.21 134.257 123.202 134.49 123.176C134.676 123.156 134.863 123.132 135.048 123.104C135.511 123.032 135.973 122.956 136.437 122.884C136.622 122.855 136.809 122.839 136.994 122.81C138.012 122.65 139.029 122.488 140.046 122.329C140.114 122.318 140.188 122.332 140.257 122.323C140.443 122.3 140.628 122.271 140.813 122.242C141.253 122.173 141.691 122.099 142.131 122.033C142.316 122.005 142.504 121.995 142.689 121.968C143.175 121.894 143.661 121.815 144.147 121.74C144.308 121.715 144.471 121.7 144.633 121.674C145.095 121.6 145.557 121.522 146.019 121.446C146.249 121.409 146.479 121.371 146.71 121.339C147.105 121.284 147.5 121.233 147.895 121.18C148.08 121.156 148.266 121.135 148.449 121.104C148.772 121.047 149.091 120.963 149.416 120.927C149.857 120.878 150.294 120.807 150.733 120.736C151.564 120.599 152.399 120.482 153.231 120.349C154.109 120.207 154.996 120.119 155.88 120.007C155.949 119.998 156.021 119.991 156.087 119.97C156.583 119.807 157.098 119.781 157.613 119.737C158.074 119.698 158.531 119.599 158.988 119.358C158.993 119.074 159.004 118.795 159.004 118.515C159.004 109.16 159.004 99.8061 159.004 90.4513C159.004 90.1685 159.013 89.8858 159.001 89.603L158.994 89.606ZM11.2918 50.4313C10.7525 50.4313 10.2121 50.4156 9.67274 50.39C9.30859 50.3723 9.16371 50.23 9.13043 49.8746C9.11085 49.6645 9.11868 49.4514 9.12064 49.2393C9.14511 47.1912 9.17154 45.1432 9.19699 43.0951C9.19797 43.0008 9.19503 42.9066 9.20482 42.8133C9.23125 42.5561 9.34285 42.4314 9.60421 42.4058C9.83719 42.3833 10.0731 42.3862 10.3071 42.3872C13.6402 42.396 16.9733 42.4098 20.3065 42.4157C27.4661 42.4284 34.6248 42.4373 41.7844 42.4471C42.5587 42.4481 43.334 42.4471 44.1083 42.4471C44.2023 42.4471 44.2963 42.4422 44.3902 42.4481C44.7769 42.4736 44.8983 42.5855 44.9286 42.9537C44.9404 43.0941 44.9355 43.2365 44.9355 43.3769C44.9384 45.4485 44.9433 47.5211 44.9423 49.5928C44.9423 50.3743 44.8807 50.446 44.1064 50.4489C41.524 50.4607 38.9427 50.4627 36.3604 50.4646C33.2387 50.4666 30.117 50.4646 26.9943 50.4646V50.4332C21.7601 50.4332 16.525 50.4342 11.2908 50.4313H11.2918ZM9.10987 32.8036C9.11477 30.9657 9.1177 29.1277 9.12749 27.2897C9.12847 27.0079 9.15588 26.7252 9.17741 26.4444C9.19308 26.2333 9.24202 26.0212 9.23517 25.8111C9.21266 25.1228 9.25475 24.4473 9.49751 23.7934C9.53667 23.6884 9.51709 23.5608 9.52492 23.4439C9.53471 23.3035 9.51905 23.1553 9.55723 23.0227C9.75105 22.3502 9.92627 21.6698 10.171 21.0159C10.4333 20.3149 10.7544 19.6345 11.0686 18.954C11.5238 17.9683 12.163 17.0945 12.7739 16.204C13.3622 15.3468 14.0719 14.5967 14.8119 13.8702C15.6048 13.0926 16.524 12.4858 17.4315 11.8623C17.778 11.6247 18.1451 11.4166 18.5073 11.2026C18.844 11.0023 19.2003 10.8452 19.5674 10.7028C19.867 10.587 20.141 10.4093 20.4572 10.316C20.9408 10.1726 21.3647 9.85256 21.8874 9.81525C22.3592 9.46474 23.0014 9.68172 23.4781 9.3371C23.531 9.29881 23.6171 9.28114 23.6817 9.29194C24.4012 9.40976 25.0492 9.00034 25.7589 9.01997C26.4393 9.03863 27.1215 9.01997 27.8019 9.01703C27.9428 9.01703 28.0838 9.01899 28.2248 9.02194C28.3422 9.02488 28.4636 9.0131 28.5762 9.03765C29.1684 9.16528 29.7548 9.32139 30.3695 9.30961C30.4997 9.30667 30.6299 9.40485 30.764 9.44608C30.9177 9.49321 31.0743 9.55801 31.2309 9.56292C31.4708 9.57176 31.6979 9.5963 31.9025 9.7318C31.9602 9.77009 32.0248 9.81918 32.0904 9.82409C32.6592 9.87318 33.13 10.1903 33.6478 10.3729C34.0874 10.529 34.4858 10.7598 34.9136 10.9247C35.4882 11.1446 35.9854 11.4902 36.4964 11.8123C37.0691 12.1736 37.6388 12.5506 38.1605 12.9806C38.7215 13.4431 39.2275 13.9723 39.7542 14.475C40.921 15.5884 41.8148 16.9158 42.6214 18.2952C43.1157 19.1406 43.5396 20.0341 43.8303 20.9805C43.9752 21.4498 44.2111 21.8985 44.2914 22.3767C44.4 23.0217 44.7123 23.6246 44.6702 24.303C44.6565 24.5298 44.7142 24.7763 44.7975 24.9903C44.912 25.2858 44.9345 25.5833 44.9355 25.8906C44.9374 28.247 44.9394 30.6024 44.9414 32.9588C44.9414 33.053 44.9433 33.1473 44.9345 33.2415C44.91 33.5194 44.8161 33.6205 44.5429 33.6401C44.3325 33.6549 44.1201 33.649 43.9086 33.649C38.2947 33.649 32.6807 33.649 27.0657 33.649C21.4283 33.649 15.7908 33.649 10.1524 33.648C9.91844 33.648 9.68253 33.6441 9.45151 33.6117C9.23811 33.5812 9.12651 33.4389 9.11085 33.2248C9.10106 33.0844 9.10889 32.9421 9.10987 32.8007V32.8036ZM9.07953 152.071C9.07659 151.365 9.07365 150.658 9.07365 149.952C9.07365 120.342 9.07365 90.7321 9.07365 61.1223C9.07365 60.6039 9.06484 60.0855 9.0854 59.5681C9.08638 59.5328 9.08931 59.4994 9.09323 59.4679H21.3392C21.349 59.5966 21.349 59.7586 21.349 59.9638C21.348 65.0987 21.3529 70.2336 21.3519 75.3695C21.351 80.5516 21.3441 85.7337 21.3431 90.9157C21.3412 95.9564 21.3431 100.998 21.3431 106.039H21.3559C21.3559 114.966 21.3539 123.894 21.3559 132.822C21.3578 139.182 21.3647 145.542 21.3686 151.902C21.3686 152.114 21.3754 152.327 21.3568 152.537C21.3294 152.843 21.21 152.961 20.9193 152.987C20.7793 153 20.6373 152.995 20.4974 152.995C16.9978 152.995 13.4992 152.997 9.99969 152.995C9.13728 152.995 9.08442 152.936 9.08051 152.071H9.07953ZM42.9434 163.69C42.919 163.756 42.8827 163.817 42.8514 163.88C41.6621 166.229 40.4707 168.578 39.2833 170.928C36.8439 175.757 34.4045 180.586 31.9681 185.416C30.4752 188.376 28.9893 191.339 27.4984 194.3C27.4044 194.486 27.2929 194.665 27.1793 194.865C26.8337 194.828 26.7907 194.589 26.6996 194.413C26.1407 193.325 25.5915 192.231 25.0385 191.139C22.9642 187.048 20.8938 182.955 18.8137 178.866C16.2969 173.92 13.7714 168.977 11.2497 164.032C11.1753 163.886 11.0951 163.74 11.0363 163.587C10.9561 163.38 11.0647 163.211 11.2967 163.197C11.6247 163.178 11.9536 163.176 12.2825 163.175C16.4858 163.172 20.6902 163.168 24.8936 163.168C30.5301 163.168 36.1665 163.172 41.803 163.175C42.0849 163.175 42.3669 163.172 42.6478 163.193C42.9405 163.214 43.0482 163.409 42.9434 163.689V163.69ZM45.0197 152.601C44.9952 152.86 44.8748 152.97 44.6095 152.999C44.4695 153.014 44.3276 153.011 44.1876 153.011C40.5471 153.002 36.9076 152.992 33.267 152.983C33.1496 152.983 33.0311 152.986 32.9156 152.973C32.6562 152.944 32.5407 152.833 32.5143 152.569C32.4967 152.383 32.4986 152.193 32.4986 152.005C32.4986 148.283 32.4957 144.561 32.4986 140.838C32.5016 137.116 32.5123 133.394 32.5172 129.672C32.525 123.689 32.5299 117.705 32.5387 111.722C32.5466 106.821 32.5613 101.922 32.5691 97.0217C32.5769 92.3335 32.5789 87.6462 32.5838 82.958C32.5916 75.2782 32.5994 67.5984 32.6082 59.9186C32.6082 59.7173 32.6122 59.573 32.6347 59.4679H44.8973C44.9022 59.4876 44.9051 59.5072 44.9081 59.5288C44.9267 59.6918 44.9276 59.8577 44.9286 60.0227C44.9355 60.9888 44.9433 61.9539 44.9433 62.92C44.9453 72.2964 44.9453 81.6719 44.9453 91.0483C44.9453 96.0654 44.9453 101.083 44.9453 106.101H44.9551C44.9551 110.624 44.9521 115.147 44.956 119.669C44.959 122.944 44.9737 126.218 44.9815 129.492C44.9893 132.79 44.9932 136.088 45.002 139.386C45.0128 143.556 45.0275 147.725 45.0402 151.895C45.0402 152.13 45.0422 152.367 45.0197 152.601ZM148.942 97.9593C148.942 102.036 148.942 106.112 148.94 110.188C148.94 110.25 148.939 110.311 148.937 110.372L125.705 113.892C125.416 113.922 125.208 114.036 125.109 114.306C125.037 114.502 124.968 114.708 124.954 114.914C124.928 115.316 124.908 115.715 124.732 116.086C124.722 116.107 124.708 116.13 124.709 116.151C124.737 116.819 124.48 117.439 124.376 118.084C124.34 118.313 124.272 118.537 124.215 118.763C124.182 118.899 124.116 119.031 124.11 119.168C124.098 119.456 124.04 119.722 123.9 119.979C123.835 120.095 123.839 120.25 123.807 120.386C123.753 120.613 123.696 120.839 123.638 121.065C123.608 121.177 123.543 121.288 123.544 121.399C123.548 121.933 123.273 122.392 123.14 122.888C122.992 123.445 122.819 124.004 122.623 124.549C122.37 125.25 122.188 125.974 121.877 126.659C121.549 127.381 121.318 128.145 121.025 128.884C120.715 129.668 120.398 130.45 120.058 131.221C119.719 131.992 119.368 132.759 118.988 133.51C118.13 135.205 117.277 136.902 116.23 138.493C115.895 139.002 115.592 139.533 115.266 140.049C114.966 140.524 114.662 140.998 114.347 141.464C114.031 141.93 113.693 142.382 113.377 142.848C113.273 143.001 113.206 143.179 113.11 143.37C113.194 143.512 113.263 143.658 113.358 143.786C115.97 147.327 118.586 150.866 121.198 154.405C123.155 157.056 125.113 159.705 127.061 162.362C127.577 163.066 127.771 163.008 126.964 163.819C125.387 165.403 123.778 166.953 122.188 168.524C120.916 169.781 119.654 171.046 118.387 172.308C118.304 172.391 118.227 172.482 118.138 172.558C117.94 172.73 117.781 172.749 117.565 172.594C117.2 172.336 116.846 172.064 116.49 171.794C115.215 170.83 113.948 169.858 112.667 168.903C111.745 168.216 110.804 167.554 109.877 166.873C109.367 166.499 108.867 166.11 108.362 165.728C107.914 165.388 107.462 165.051 107.016 164.707C106.906 164.623 106.767 164.538 106.719 164.421C106.586 164.092 106.317 163.907 106.057 163.708C103.614 161.832 101.172 159.956 98.7287 158.081C98.6925 158.054 98.6455 158.039 98.578 158.005C98.3636 158.032 98.1551 158.129 97.9593 158.263C97.0675 158.87 96.1806 159.483 95.282 160.079C94.7162 160.454 94.1367 160.811 93.5552 161.163C92.9571 161.526 92.3561 161.887 91.7443 162.225C90.6391 162.837 89.5359 163.453 88.4102 164.025C87.5389 164.469 86.6374 164.854 85.7476 165.259C85.1583 165.528 84.5817 165.843 83.9679 166.039C83.3268 166.243 82.7375 166.578 82.0748 166.724C81.8105 166.782 81.5922 167.012 81.2946 167.01C80.9383 167.309 80.4596 167.271 80.0553 167.464C79.6451 167.661 79.1694 167.72 78.724 167.842C78.3902 167.935 78.1053 168.187 77.7304 168.14C77.3878 168.373 76.9669 168.351 76.6037 168.488C76.2435 168.625 75.8676 168.635 75.5191 168.755C75.1833 168.869 74.8632 169.006 74.503 169C74.0292 169.292 73.4507 169.195 72.9573 169.42C72.8516 169.468 72.7302 169.517 72.6196 169.511C71.9275 169.471 71.2942 169.819 70.6168 169.823C70.1009 169.826 69.6682 170.028 69.1964 170.21C69.1739 170.413 69.1592 170.597 69.1308 170.781C69.078 171.13 69.0183 171.476 68.9595 171.824C68.9517 171.87 68.9213 171.914 68.9213 171.959C68.9184 172.86 68.6336 173.722 68.5621 174.613C68.5357 174.94 68.4642 175.262 68.4094 175.586C68.3976 175.655 68.3546 175.723 68.3555 175.79C68.3643 176.715 68.0482 177.596 67.9855 178.512C67.963 178.838 67.8798 179.161 67.826 179.485C67.7946 179.669 67.7594 179.855 67.7388 180.041C67.7212 180.205 67.7369 180.371 67.7144 180.534C67.5783 181.51 67.4373 182.486 67.2944 183.461C67.2846 183.53 67.2357 183.596 67.2337 183.664C67.2102 184.561 66.9704 185.428 66.8559 186.312C66.804 186.706 66.7316 187.099 66.6679 187.492C66.6601 187.538 66.6386 187.584 66.6395 187.63C66.6474 188.531 66.342 189.391 66.2822 190.283C66.2617 190.585 66.1853 190.885 66.1315 191.185C66.1188 191.255 66.0806 191.322 66.0806 191.39C66.0884 192.246 65.8192 193.061 65.7292 193.901C65.7194 193.994 65.7145 194.089 65.6959 194.181C65.6548 194.385 65.5265 194.524 65.3259 194.562C65.1193 194.6 64.9069 194.62 64.6974 194.62C60.8689 194.632 57.0395 194.642 53.2111 194.651C53.1171 194.651 53.0231 194.655 52.9291 194.647C52.4984 194.611 52.284 194.422 52.2664 193.979C52.2459 193.456 52.0941 192.957 52.0325 192.451C51.9277 191.588 51.7652 190.735 51.6624 189.873C51.5489 188.919 51.3746 187.973 51.2259 187.023C51.2219 187 51.2092 186.978 51.2073 186.956C51.1397 186.018 50.9087 185.104 50.7981 184.172C50.7599 183.847 50.6933 183.525 50.6454 183.201C50.5122 182.297 50.3625 181.395 50.2607 180.487C50.2058 179.997 50.2313 179.501 50.06 179.024C50.0052 178.872 49.9983 178.7 49.9895 178.536C49.9641 178.042 49.9386 177.548 49.7516 177.079C49.7428 177.058 49.736 177.034 49.735 177.011C49.7193 176.184 49.4873 175.387 49.3953 174.57C49.3532 174.198 49.2661 173.831 49.2162 173.459C49.1467 172.947 49.0811 172.433 49.04 171.919C49.0302 171.791 49.1056 171.647 49.1682 171.524C50.5896 168.699 51.9953 165.865 53.4519 163.057C53.7886 162.408 53.9452 161.778 53.9433 161.051C53.9276 153.534 53.9345 146.019 53.9354 138.502C53.9354 138.266 53.9335 138.03 53.9452 137.795C53.954 137.606 53.9814 137.418 54.1606 137.271C54.5012 137.185 54.838 137.328 55.1777 137.389C55.5026 137.448 55.8198 137.475 56.1536 137.46C56.691 137.436 57.2324 137.491 57.7717 137.488C58.9924 137.482 60.2131 137.459 61.4348 137.445C61.5757 137.443 61.7177 137.44 61.8567 137.46C62.2835 137.519 62.6985 137.475 63.1116 137.362C63.5893 137.232 64.0719 137.142 64.5711 137.172C64.6827 137.179 64.8139 137.162 64.9089 137.108C65.2515 136.914 65.6137 136.862 65.9964 136.901C66.0199 136.903 66.0473 136.91 66.0659 136.901C66.571 136.643 67.1486 136.649 67.6713 136.456C67.7584 136.423 67.8367 136.349 67.9239 136.339C68.8372 136.238 69.6477 135.812 70.5062 135.537C71.8835 135.095 73.1786 134.473 74.4648 133.822C75.616 133.239 76.7133 132.566 77.795 131.868C78.3246 131.525 78.7994 131.098 79.328 130.753C80.2775 130.134 81.0596 129.314 81.9318 128.604C82.7678 127.925 83.5128 127.128 84.1872 126.276C84.4202 125.981 84.6816 125.709 84.9126 125.412C85.4764 124.69 86.0403 123.969 86.5875 123.234C87.6721 121.779 88.5384 120.19 89.3509 118.574C89.7385 117.802 90.0508 116.991 90.3758 116.19C90.6479 115.519 90.8966 114.839 91.1393 114.157C91.2568 113.828 91.3762 113.493 91.4271 113.149C91.5103 112.59 91.8099 112.087 91.8138 111.509C91.8138 111.372 91.852 111.224 91.9136 111.101C92.0448 110.84 92.0869 110.569 92.0938 110.282C92.0977 110.119 92.1055 109.943 92.1662 109.796C92.3532 109.348 92.36 108.879 92.3757 108.408C92.3806 108.244 92.3855 108.074 92.4285 107.917C92.64 107.16 92.6615 106.386 92.6586 105.608C92.6527 104.077 92.6684 102.546 92.6537 101.017C92.6507 100.667 92.5636 100.319 92.5078 99.971C92.4745 99.7629 92.4031 99.5577 92.3923 99.3486C92.361 98.7379 92.3581 98.1272 92.1241 97.544C92.0654 97.3987 92.1026 97.217 92.0781 97.0541C92.0497 96.8705 92.0086 96.6878 91.9606 96.5072C91.9303 96.3943 91.8471 96.2892 91.8422 96.1773C91.8206 95.7247 91.6484 95.3113 91.5514 94.8793C91.479 94.5553 91.3459 94.2588 91.2676 93.9456C91.1941 93.6501 91.1002 93.3663 91.0111 93.0767C90.7713 92.2932 90.4473 91.5451 90.1565 90.7822C89.7963 89.8387 89.3538 88.9364 88.8869 88.0458C88.1439 86.631 87.2893 85.2869 86.3799 83.9703C85.0594 82.0597 83.4198 80.4485 81.7919 78.8187C81.0567 78.0833 80.2374 77.453 79.4317 76.8089C78.7025 76.2267 77.8792 75.7652 77.1157 75.2232C76.5988 74.857 76.0477 74.5546 75.5005 74.2424C74.5265 73.6867 73.5329 73.1683 72.4904 72.7481C71.8884 72.5056 71.3157 72.1678 70.6961 71.994C69.958 71.7869 69.2777 71.3883 68.4994 71.3234C68.0511 71.0436 67.4951 71.1133 67.034 70.8669C66.9156 70.8031 66.7648 70.7952 66.6268 70.7746C66.5113 70.7569 66.3762 70.7923 66.2793 70.7452C65.5667 70.3966 64.7473 70.5537 64.0239 70.2592C63.9388 70.2248 63.8399 70.2042 63.7479 70.2081C62.8493 70.2464 61.98 69.9715 61.0921 69.944C59.7325 69.9018 58.3698 69.9106 57.0082 69.9312C56.5922 69.9381 56.1791 70.0608 55.764 70.1227C55.206 70.2052 54.6451 70.2277 54.047 70.1865C54.0098 70.051 53.9452 69.9224 53.9442 69.7938C53.9354 64.6107 53.9296 59.4267 53.9315 54.2437C53.9325 49.8137 53.9472 45.3847 53.9482 40.9547C53.9482 36.0299 53.9384 31.1061 53.9394 26.1812C53.9394 25.4243 53.8836 24.6761 53.7631 23.9299C53.6995 23.5352 53.6809 23.1346 53.631 22.737C53.6016 22.5053 53.5546 22.2756 53.5116 22.0448C53.4636 21.7915 53.4147 21.5382 53.3589 21.2869C53.3187 21.1062 53.2708 20.9265 53.2189 20.7488C53.1925 20.6595 53.1141 20.5731 53.119 20.4886C53.1474 19.9545 52.8714 19.4931 52.7559 18.9943C52.61 18.363 52.3447 17.7523 52.0765 17.1583C51.9434 16.8637 51.8925 16.5761 51.9072 16.2717C51.9228 15.9428 51.9551 15.6119 52.0227 15.2899C52.1186 14.8294 52.2331 14.3748 52.2429 13.8986C52.2488 13.6286 52.3653 13.5413 52.655 13.5197C52.842 13.5059 53.0309 13.5089 53.2189 13.5108C54.9104 13.5275 56.601 13.556 58.2925 13.5609C60.4529 13.5678 62.6133 13.553 64.7747 13.5521C65.7321 13.5521 65.7546 13.5609 65.9005 14.4917C66.0581 15.4921 66.1844 16.4965 66.3263 17.499C66.4252 18.198 66.5221 18.8981 66.6297 19.5962C66.7727 20.5269 66.9293 21.4557 67.0722 22.3865C67.1936 23.1778 67.3022 23.9702 67.4187 24.7615C67.5861 25.9014 67.7604 27.0413 67.9219 28.1822C68.0609 29.1601 68.1784 30.1419 68.3223 31.1188C68.4564 32.026 68.613 32.9293 68.7598 33.8336C68.7677 33.8797 68.7814 33.9259 68.7872 33.972C68.9096 34.8802 69.0408 35.7874 69.1494 36.6975C69.2219 37.3023 69.3795 37.4889 69.9707 37.534C70.3231 37.5606 70.6579 37.6175 70.9966 37.7422C71.2932 37.8512 71.6397 37.8217 71.9618 37.8639C72.2848 37.9062 72.5462 38.1487 72.9035 38.1173C73.1257 38.0976 73.3587 38.1919 73.5858 38.2429C73.7659 38.2832 73.9431 38.3342 74.1212 38.3814C74.3239 38.4344 74.5265 38.4864 74.7291 38.5394C74.9083 38.5856 75.0864 38.6327 75.2656 38.6749C75.3106 38.6857 75.3615 38.6749 75.4055 38.6887C75.6953 38.7741 75.9782 38.8958 76.2729 38.941C76.5528 38.9842 76.8318 38.997 77.0765 39.1609C77.1333 39.1992 77.2057 39.2316 77.2723 39.2326C77.5601 39.2385 77.8068 39.3514 78.0701 39.4594C78.4949 39.6342 78.958 39.7157 79.4053 39.8354C79.4278 39.8413 79.4533 39.8394 79.4738 39.8492C79.789 40.0014 80.0974 40.1722 80.4664 40.1408C81.043 40.4952 81.7517 40.5227 82.3195 40.8968C82.7522 40.8988 83.0762 41.2218 83.4991 41.2944C83.778 41.3425 84.0756 41.4741 84.3399 41.6066C85.0643 41.9689 85.8122 42.289 86.5522 42.6071C87.4479 42.992 88.3416 43.3798 89.1874 43.8531C90.3454 44.5001 91.5319 45.097 92.6527 45.8118C93.4202 46.3007 94.2258 46.7298 95.0079 47.1962C95.3682 47.4112 95.7235 47.637 96.0671 47.8775C96.7572 48.3626 97.4366 48.8643 98.1228 49.3552C98.4752 49.6065 98.5652 49.6036 98.9372 49.3346C99.3562 49.0312 99.7673 48.719 100.182 48.4097C101.973 47.0764 103.765 45.746 105.554 44.4107C106.815 43.4692 108.069 42.5178 109.332 41.5782C111.293 40.1192 113.258 38.6671 115.22 37.21C115.881 36.7201 116.535 36.2204 117.195 35.7304C117.418 35.5645 117.621 35.3642 117.932 35.2778C118.073 35.3986 118.221 35.5086 118.351 35.6382C121.177 38.4687 124 41.3013 126.826 44.1319C127.352 44.6581 127.507 44.8113 126.936 45.6449C126.683 46.0131 126.404 46.3626 126.137 46.721C125.45 47.6449 124.757 48.5658 124.076 49.4946C123.423 50.3851 122.787 51.2884 122.135 52.1799C121.747 52.7111 121.339 53.2275 120.948 53.7567C120.556 54.2859 120.182 54.8269 119.787 55.3522C119.465 55.7802 119.203 56.2613 118.727 56.5598C118.593 56.6432 118.498 56.7944 118.401 56.926C116.727 59.1705 115.053 61.4159 113.384 63.6643C113.076 64.0786 113.067 64.2023 113.341 64.6127C113.77 65.2568 114.23 65.8812 114.654 66.5292C115.207 67.3736 115.736 68.2327 116.278 69.0839C117.225 70.5714 118.028 72.1384 118.81 73.7152C119.362 74.8286 119.889 75.9547 120.385 77.0946C120.954 78.4034 121.499 79.7249 122.008 81.0582C122.273 81.7533 122.529 82.4563 122.681 83.1927C122.77 83.6237 122.955 84.0351 123.095 84.4553C123.228 84.8549 123.38 85.2496 123.486 85.6571C123.561 85.9497 123.593 86.2471 123.69 86.5427C123.87 87.0945 123.964 87.6747 124.098 88.2422C124.135 88.4003 124.191 88.5544 124.231 88.7125C124.283 88.9167 124.328 89.1219 124.373 89.3281C124.418 89.5333 124.454 89.7405 124.501 89.9447C124.527 90.0596 124.598 90.1695 124.599 90.2824C124.605 91.0414 124.923 91.7493 124.952 92.5043C124.958 92.6673 124.986 92.8332 125.032 92.9903C125.152 93.4017 125.24 93.4508 125.669 93.5048C126.04 93.5519 126.406 93.6344 126.775 93.6972C126.937 93.7247 127.1 93.7394 127.262 93.765C127.701 93.8347 128.139 93.9093 128.578 93.977C128.763 94.0055 128.949 94.0271 129.135 94.0467C129.601 94.0978 130.071 94.1057 130.516 94.2932C130.66 94.354 130.838 94.3325 131.001 94.3472C131.421 94.3845 131.848 94.3815 132.246 94.5514C132.311 94.5789 132.382 94.6083 132.449 94.6054C133.373 94.5759 134.251 94.8901 135.161 94.9795C135.878 95.0502 136.6 95.1523 137.305 95.2907C137.883 95.4046 138.455 95.492 139.038 95.5519C139.268 95.5754 139.489 95.6952 139.719 95.7168C140.489 95.7924 141.248 95.923 142.009 96.0634C142.488 96.1518 142.986 96.1469 143.462 96.2941C143.66 96.355 143.881 96.3442 144.092 96.353C144.422 96.3668 144.749 96.3815 145.057 96.52C145.12 96.5484 145.192 96.5759 145.26 96.5759C146.132 96.5857 146.962 96.8891 147.829 96.9372C148.084 96.952 148.34 96.9981 148.588 97.0609C148.815 97.1179 148.936 97.2897 148.941 97.5302C148.944 97.6716 148.941 97.813 148.941 97.9544L148.942 97.9593ZM53.9599 82.8549C53.9658 82.692 53.9961 82.528 54.0353 82.3699C54.0725 82.2217 54.1811 82.1304 54.3368 82.1127C54.5003 82.094 54.6657 82.094 54.8272 82.0685C55.0328 82.0371 55.2364 81.991 55.44 81.9468C55.6456 81.9026 55.8482 81.8201 56.0547 81.8123C57.3185 81.7651 58.5842 81.6895 59.847 81.719C60.4745 81.7337 61.1029 81.824 61.7372 81.8044C61.9193 81.7985 62.1063 81.8633 62.2874 81.9124C62.6496 82.0096 63.0059 82.1343 63.3906 82.0813C63.4131 82.0783 63.4395 82.0783 63.4601 82.0872C63.9769 82.2924 64.5398 82.3395 65.0557 82.5467C65.0988 82.5643 65.1399 82.6124 65.179 82.6095C65.6665 82.5673 66.0405 82.9472 66.5103 82.9659C66.7737 83.2899 67.2093 83.178 67.5313 83.3724C67.8485 83.5638 68.2067 83.6856 68.5406 83.8515C69.588 84.3709 70.607 84.9482 71.5653 85.6168C72.5462 86.3021 73.4634 87.0748 74.2984 87.9378C74.8211 88.4769 75.3772 88.9894 75.85 89.5696C76.4412 90.2962 76.9914 91.061 77.5053 91.8445C78.0192 92.628 78.4852 93.4429 78.8757 94.301C79.1763 94.9608 79.4415 95.6324 79.7048 96.3079C79.8664 96.7222 79.9946 97.1463 80.1277 97.5656C80.3118 98.1429 80.4116 98.7467 80.5457 99.3397C80.5555 99.3849 80.5428 99.4379 80.5584 99.4801C80.859 100.29 80.7748 101.154 80.9128 101.985C81.0371 102.737 81.042 103.484 81.0234 104.234C81.0087 104.818 80.9226 105.402 80.8697 105.985C80.8511 106.195 80.8365 106.405 80.8237 106.615C80.8149 106.756 80.8462 106.909 80.8022 107.036C80.5751 107.703 80.5976 108.424 80.3382 109.085C80.1943 109.453 80.1503 109.851 80.0357 110.233C79.5071 111.993 78.7465 113.642 77.797 115.208C77.1754 116.233 76.4588 117.186 75.6963 118.11C75.201 118.71 74.6998 119.3 74.1183 119.813C73.4155 120.433 72.6901 121.025 71.9363 121.587C71.1836 122.147 70.4063 122.661 69.5831 123.104C68.847 123.499 68.0971 123.867 67.3228 124.194C66.6816 124.464 66.0003 124.622 65.3787 124.938C65.2779 124.989 65.1526 124.994 65.0371 125.01C64.9441 125.023 64.8325 124.991 64.7591 125.031C64.254 125.31 63.6666 125.261 63.138 125.454C62.9011 125.541 62.6349 125.549 62.3804 125.579C62.1719 125.603 61.9536 125.579 61.7519 125.628C60.1299 126.023 58.4912 125.94 56.8565 125.787C56.3249 125.737 55.8002 125.603 55.2609 125.56C54.8703 125.53 54.4895 125.374 54.0138 125.25C53.9922 125.044 53.9589 124.863 53.957 124.681C53.9491 123.997 53.9511 123.315 53.9511 122.632C53.9511 109.725 53.9521 96.8204 53.9531 83.9143C53.9531 83.5609 53.9491 83.2074 53.9619 82.8549H53.9599Z" fill="#FE0404"/>
    </g>
    <defs>
    <clipPath id="clip0_826_8595">
    <rect width="159" height="206" fill="white"/>
    </clipPath>
    </defs>
    </svg>
    