<svg width="196" height="127" viewBox="0 0 196 127" fill="none" xmlns="http://www.w3.org/2000/svg">
    <g clip-path="url(#clip0_677_7947)">
    <path d="M63.9061 16.1909C74.1384 16.1909 84.3708 16.1909 94.6032 16.1909C96.761 16.1909 98.8681 16.3425 100.992 16.7469C107.415 17.9262 110.871 21.5486 110.786 27.9845C110.668 36.7286 111.562 45.4558 110.887 54.1999C110.685 56.8787 110.803 59.5913 110.887 62.2701C110.921 63.7864 110.382 64.5277 108.831 64.5277C107.752 64.5277 106.673 64.7805 105.611 64.6962C101.026 64.3929 96.4912 65.1174 91.9735 65.5892C86.6297 66.1451 81.9265 68.3354 78.0493 72.1599C77.1896 73.0191 76.313 73.8447 75.4196 74.6702C68.997 80.5501 65.0861 87.6263 65.0355 96.5389C65.0186 99.3525 64.8669 102.183 64.7826 104.997C64.7489 106.193 64.7826 107.389 64.5129 108.602C64.1926 110.085 63.7375 110.86 61.9675 110.843C50.3865 110.759 38.8055 110.876 27.2245 110.759C21.0379 110.691 16.8741 106.462 16.301 100.06C15.9807 96.4715 16.0481 92.8997 16.1324 89.2942C16.4359 74.7544 16.3853 60.2147 16.1661 45.6749C16.1156 41.9346 15.6098 38.1775 15.7447 34.4373C15.8627 31.5057 16.0819 28.5405 16.537 25.6426C17.245 21.0937 19.9253 18.1116 24.4599 17.067C26.8031 16.5279 29.18 16.1572 31.6243 16.1741C42.3961 16.2246 53.1679 16.1909 63.9398 16.1909H63.9061Z" fill="#FE0404"/>
    <path d="M1.16117e-05 62.9103C0.758591 52.0265 -0.353992 39.9128 0.286586 27.816C1.19688 10.8669 13.351 1.2299 27.1403 0.471744C32.7875 0.151633 38.4178 0.050545 44.065 0.050545C60.4503 1.10583e-06 76.8356 -0.0336948 93.221 0.067393C97.233 0.101089 101.346 0.168481 105.223 1.09512C115.607 3.57177 122.249 10.2941 125.57 20.386C126.598 23.4861 126.784 26.7377 126.952 29.9051C127.408 39.0367 126.716 48.1683 126.228 57.2999C126.025 61.057 123.632 63.5674 120.125 64.3256C119.08 64.5446 118.271 64.494 118.119 63.163C117.934 61.4445 117.597 59.7429 117.529 57.9907C117.26 50.864 118.086 43.771 118.17 36.6443C118.22 32.8704 117.917 29.1133 117.445 25.4067C116.315 16.5616 110.668 10.5974 100.975 9.45171C96.0024 8.86203 91.0464 8.97997 86.0903 8.96312C68.3058 8.92943 50.5214 8.96312 32.7538 8.96312C29.3992 8.96312 26.0783 9.38432 22.808 10.1256C14.3119 12.0463 10.3504 18.6507 9.28839 26.6872C8.93439 29.3492 8.98496 32.0617 8.98496 34.7405C8.9681 54.4021 8.9681 74.0637 8.98496 93.7253C8.98496 97.2128 9.10296 100.7 9.86154 104.12C11.5641 111.803 19.5714 117.616 26.7863 117.902C36.3444 118.273 45.8856 117.717 55.4437 117.835C57.7363 117.868 60.0121 118.087 62.2878 118.071C63.9904 118.071 64.3444 118.896 64.1758 120.345C63.8892 122.754 61.6641 125.383 59.1018 126.073C57.8206 126.41 56.472 126.697 55.1571 126.714C45.3293 126.714 35.5184 127.404 25.6906 126.747C12.0193 125.838 0.674304 113.808 0.269729 100.094C-0.0842749 88.1149 0.219157 76.136 -0.0168457 62.944L1.16117e-05 62.9103Z" fill="#FE0404"/>
    <path d="M125.638 70.256C125.385 74.1985 123.935 77.349 122.013 80.2974C120.176 83.111 117.967 85.6719 115.591 88.0475C106.269 97.3981 96.9464 106.749 87.5738 116.049C82.7526 120.834 77.4257 124.759 69.9916 125.804C72.3179 116.453 70.9356 107.17 71.5424 97.9878C72.4865 83.8692 82.3143 72.0588 99.2896 71.705C105.679 71.5702 112.084 71.4017 118.473 71.1321C120.715 71.031 122.957 70.593 125.621 70.256H125.638Z" fill="#FE0404"/>
    <path d="M167.157 46.5846C164.864 40.8395 164.932 34.7068 160.026 30.697C159.066 29.9051 158.863 29.0291 158.88 27.8834C159.099 20.2176 159.335 12.5349 159.42 4.86906C159.436 2.81361 160.296 2.25763 162.1 2.45981C162.37 2.4935 162.639 2.45981 162.909 2.45981C169.753 2.40926 171.489 4.11091 171.489 10.9512C171.489 15.5338 171.574 20.1165 171.456 24.6823C171.405 26.6703 171.978 28.2877 173.057 29.9388C174.692 32.4323 176.614 34.6731 178.553 36.8802C180.828 39.4916 181.772 42.3726 181.469 45.7759C181.132 49.3814 180.896 52.9869 180.609 56.5923C180.474 58.2266 180.036 59.7092 178.772 60.9223C173.529 65.943 168.303 70.9974 163.145 76.1023C161.982 77.2479 161.223 77.0626 160.178 76.018C158.189 74.03 155.998 72.2104 154.042 70.1887C151.564 67.5941 150.215 64.4772 149.845 60.838C149.12 53.7619 148.311 46.7026 148.243 39.5927C148.209 34.7742 149.895 32.2133 153.351 31.6068C157.076 30.9497 159.588 32.7188 161.341 37.2846C162.117 39.2895 162.724 41.3618 163.6 43.3161C164.156 44.5797 164.392 46.2477 167.157 46.5846Z" fill="#FE0404"/>
    <path d="M136.983 30.8823C136.983 24.0252 136.949 17.1681 136.983 10.3278C137.016 4.90276 138.297 3.6897 143.759 2.94839C146.827 2.52719 149.895 2.39241 152.963 2.4935C155.644 2.57774 155.998 2.94839 155.981 5.55983C155.913 12.5517 155.745 19.5268 155.677 26.5187C155.677 28.153 155.138 28.7426 153.418 29.0459C147.788 30.0568 145.782 32.7188 145.58 38.4639C145.327 45.321 146.659 52.0602 147.03 58.8837C147.164 61.394 147.333 61.394 144.905 61.4951C140.657 61.6804 137.977 60.3494 137.64 57.4179C137.387 55.1771 136.881 52.9532 136.932 50.645C137.05 44.0574 136.983 37.4699 136.983 30.8992V30.8823Z" fill="#FE0404"/>
    <path d="M174.321 96.1514C170.023 92.3943 166.601 87.997 163.836 83.0942C162.976 81.5779 163.381 80.0784 164.561 78.6632C166.702 76.0517 168.995 73.5751 171.574 71.4522C174.574 68.9587 176.917 65.7913 180.137 63.5505C183.374 61.2929 184.756 61.2424 187.436 64.0223C190.049 66.718 192.46 69.599 195.005 72.3452C196.219 73.6593 196.455 75.0409 195.14 76.2371C188.583 82.1844 182.834 88.991 176.075 94.7193C175.569 95.1573 175.046 95.5617 174.338 96.1514H174.321Z" fill="#FE0404"/>
    </g>
    <defs>
    <clipPath id="clip0_677_7947">
    <rect width="196" height="127" fill="white"/>
    </clipPath>
    </defs>
    </svg>
    