<svg width="202" height="162" viewBox="0 0 202 162" fill="none" xmlns="http://www.w3.org/2000/svg">
    <g clip-path="url(#clip0_820_7657)">
    <path d="M37.7369 58.039C34.0685 59.839 31.54 62.122 28.6608 63.8049C28.0615 64.1561 27.5208 64.6244 26.9069 64.961C23.1215 67.0976 19.5407 66.1902 17.3338 62.4146C12.0284 53.3854 6.76684 44.3122 1.53451 35.239C0.0729655 32.722 -0.862422 30.1902 1.22759 27.4244C1.73913 26.7512 2.25067 26.2683 2.90836 25.8C11.7799 19.5659 20.7977 13.5366 29.9177 7.68293C33.44 5.41463 36.7869 2.9122 40.4993 0.936585C41.6831 0.292683 42.8085 0 44.1239 0C54.0478 0.0146341 63.9863 0 73.9102 0.0146341C77.4179 0.0146341 78.134 0.790244 78.6748 4.41951C79.3179 8.80976 80.1802 13.1268 82.6794 16.961C87.2541 23.9707 93.3779 28.4049 101.986 28.039C109.528 27.7171 115.023 23.4878 119.13 17.3854C121.863 13.3317 123.047 8.75122 123.281 3.89268C123.413 1.21463 124.494 0.0585366 127.154 0.0439024C137.663 -0.0146341 148.186 0.0292683 158.694 0C159.937 0 160.974 0.482927 161.968 1.09756C166.996 4.2439 171.921 7.55122 176.788 10.9463C179.828 13.0683 183.087 14.8829 186.157 16.9756C190.293 19.8 194.473 22.5659 198.638 25.3756C202.117 27.7171 202.979 30.7024 200.889 34.4195C197.411 40.6244 193.757 46.7268 190.176 52.8732C188.466 55.8 186.668 58.6683 185.075 61.6537C182.678 66.161 178.425 67.3756 174.274 64.4341C171.804 62.678 169.261 61.0098 166.777 59.2829C166.134 58.8293 165.637 57.922 164.701 58.4781C163.854 58.9902 164.234 59.9415 164.175 60.7024C164.131 61.4049 164.175 62.1073 164.175 62.8098C164.175 92.7659 164.175 122.722 164.175 152.678C164.175 153.498 164.146 154.317 164.175 155.137C164.365 159.556 161.15 161.517 157.73 161.941C157.043 162.029 156.327 161.956 155.625 161.956C119.408 161.956 83.191 161.956 46.9593 161.956C44.2847 161.956 41.6247 161.971 39.5054 159.82C38.5408 158.854 37.8831 157.888 37.8685 156.512C37.8539 155.107 37.7223 153.717 37.7223 152.312C37.7223 122.356 37.7223 92.4 37.7223 62.4439C37.7223 61.1854 37.7223 59.9268 37.7223 58.039H37.7369ZM101.007 153.088C117.83 153.088 134.652 153.088 151.489 153.088C156.137 153.088 155.523 153.454 155.523 148.873C155.523 116.341 155.567 83.8098 155.464 51.278C155.464 48.6439 156.122 46.6244 158.285 45.3512C160.536 44.0195 162.231 45.6878 163.956 46.8732C168.004 49.6537 172.067 52.4049 176.087 55.2146C177.256 56.0195 178.06 56.1659 178.907 54.7463C183.073 47.7073 187.282 40.6829 191.521 33.6878C192.208 32.561 192.12 31.7561 191.024 31.039C190.527 30.7171 190.059 30.3805 189.577 30.0585C179.609 23.3122 169.627 16.5951 159.688 9.81951C158.27 8.85366 156.867 8.4 155.143 8.41463C148.361 8.48781 141.594 8.4439 134.813 8.4439C131.743 8.4439 131.67 8.4439 130.91 11.4878C128.923 19.3463 125.035 25.9317 118.385 30.7317C112.436 35.0195 105.845 37.8146 98.4641 36.8634C84.7402 35.0927 74.2609 24.6439 71.3086 11.5463C70.5925 8.34146 70.6363 8.26829 67.1724 8.23903C60.5078 8.19512 53.8578 8.25366 47.1931 8.18049C45.3224 8.16585 43.8024 8.82439 42.3262 9.81951C32.1392 16.639 21.923 23.4293 11.7361 30.2634C9.573 31.7122 9.51454 31.8732 10.8738 34.1561C14.7469 40.6829 18.6784 47.1951 22.5954 53.6927C23.94 55.9317 24.0277 55.9463 26.3661 54.439C30.1954 51.9805 33.9808 49.4488 37.81 46.9756C39.7539 45.7317 41.6539 44.0927 44.2116 45.5122C46.7401 46.9171 46.4331 49.3463 46.4331 51.6878C46.4185 83.9854 46.4185 116.283 46.4185 148.58C46.4185 149.517 46.3893 150.468 46.5501 151.376C46.7254 152.371 47.2955 153.073 48.4501 153.044C49.3855 153.015 50.3208 153.044 51.2562 153.044C67.8448 153.044 84.4333 153.044 101.036 153.044L101.007 153.088Z" fill="#FE0404"/>
    <path d="M88.1165 64.6097C89.9726 64.9317 92.1796 65.1366 94.4011 65.078C97.7919 65.0049 100.481 63.7171 102.381 60.8341C103.346 59.3707 104.325 57.878 105.538 56.6488C108.68 53.4585 112.13 53.8829 114.585 57.6439C116.763 60.9951 117.216 64.8293 117.669 68.678C117.99 71.3707 118.458 71.7073 120.957 70.7854C121.937 70.4195 122.93 69.9951 123.778 69.4097C126.672 67.3756 129.303 68.239 131.817 70.0829C134.301 71.8829 134.681 74.5171 134.316 77.2975C133.848 80.8829 131.744 83.4878 128.967 85.6244C127.198 86.9853 125.24 88.0244 123.252 89.0049C121.79 89.7219 120.285 90.4097 118.926 91.3024C115.623 93.4975 115.287 96.2049 117.903 99.2634C118.663 100.156 119.554 100.917 120.373 101.751C122.141 103.551 122.843 105.585 122.127 108.132C120.957 112.273 119.116 116.005 115.871 118.888C111.925 122.4 107.497 121.859 104.5 117.512C103.653 116.268 103.083 114.834 102.396 113.488C101.767 112.244 101.256 110.912 100.51 109.741C98.7565 107.019 96.798 106.58 93.9334 108.102C91.8142 109.229 90.2796 110.971 89.008 112.976C88.0726 114.454 87.1957 115.99 85.9388 117.234C82.9572 120.161 79.5811 120.454 76.1464 118.083C72.3172 115.434 70.2564 110.356 71.2795 105.776C72.5656 100.024 75.5618 95.1951 79.6103 91.0097C85.8365 84.6 85.8949 84.6 82.2118 76.5512C81.2034 74.3415 80.838 72.0878 81.3057 69.7171C82.0072 66.2634 84.2142 64.5219 88.1019 64.5805L88.1165 64.6097ZM88.7449 68.1951C85.7634 68.0488 84.7988 68.9268 84.6526 71.5756C84.5942 72.7756 84.8718 73.8732 85.4126 74.9561C86.0849 76.3171 86.7572 77.678 87.3272 79.0829C89.1542 83.5756 88.3065 87.5415 84.828 90.9219C84.068 91.6536 83.2788 92.3414 82.5334 93.0878C78.9818 96.6 76.5118 100.771 74.9187 105.498C74.1003 107.927 74.5095 110.195 75.6641 112.244C77.7103 115.844 81.3934 118.595 84.9157 112.859C85.398 112.068 85.9095 111.278 86.4357 110.502C87.2834 109.244 88.248 108.073 89.388 107.049C94.0357 102.907 100.686 101.312 104.632 109.917C105.027 110.766 105.421 111.615 105.816 112.463C106.108 113.107 106.342 113.766 106.678 114.38C108.856 118.405 111.472 118.698 114.6 115.273C116.28 113.429 117.318 111.219 118.283 108.951C119.204 106.785 119.028 104.941 117.026 103.376C116.032 102.6 115.17 101.59 114.439 100.537C111.487 96.3073 112.217 91.9756 116.31 88.8585C118.093 87.4975 120.124 86.6049 122.112 85.639C124.436 84.5122 126.672 83.2683 128.484 81.3805C129.99 79.8146 130.998 77.9854 130.94 75.761C130.867 72.761 128.309 71.2097 125.634 72.4683C124.48 73.0097 123.369 73.7122 122.185 74.1658C117.406 75.9805 114.512 74.0488 114.147 68.9122C113.913 65.7512 113.474 62.6195 111.837 59.839C110.58 57.7024 109.411 57.5854 107.76 59.4439C106.839 60.4829 106.079 61.6829 105.304 62.8536C102.703 66.7902 98.9465 68.5171 94.328 68.6341C92.3403 68.678 90.3673 68.6341 88.7596 68.1951H88.7449Z" fill="#FE1010"/>
    <path d="M88.7303 68.1951C90.3234 68.6342 92.3111 68.6781 94.2988 68.6342C98.9173 68.5171 102.659 66.7903 105.275 62.8537C106.05 61.6829 106.81 60.4829 107.73 59.4439C109.397 57.5854 110.551 57.7025 111.808 59.839C113.46 62.6195 113.898 65.7512 114.117 68.9122C114.483 74.0342 117.377 75.9659 122.156 74.1659C123.354 73.7122 124.45 73.0244 125.605 72.4683C128.28 71.2098 130.852 72.761 130.91 75.761C130.954 77.9854 129.96 79.8146 128.455 81.3805C126.643 83.2683 124.407 84.5122 122.083 85.639C120.095 86.6049 118.064 87.5122 116.28 88.8586C112.188 91.9756 111.472 96.322 114.41 100.537C115.14 101.576 116.003 102.6 116.997 103.376C118.999 104.941 119.174 106.771 118.254 108.951C117.289 111.22 116.251 113.429 114.57 115.273C111.443 118.698 108.827 118.405 106.649 114.381C106.313 113.766 106.079 113.107 105.787 112.463C105.392 111.615 104.997 110.766 104.603 109.917C100.657 101.312 94.0065 102.907 89.3588 107.049C88.2188 108.059 87.2542 109.229 86.4065 110.502C85.8803 111.278 85.3688 112.054 84.8865 112.859C81.3642 118.595 77.6811 115.844 75.6349 112.244C74.4657 110.195 74.071 107.927 74.8895 105.498C76.4826 100.756 78.9672 96.6 82.5042 93.0878C83.2495 92.3415 84.0388 91.6537 84.7988 90.922C88.2773 87.5415 89.1249 83.5903 87.298 79.0829C86.728 77.6781 86.0557 76.3171 85.3834 74.9561C84.8426 73.8878 84.5649 72.7756 84.6234 71.5756C84.7695 68.9268 85.7342 68.0342 88.7157 68.1951H88.7303Z" fill="#FE0404"/>
    </g>
    <defs>
    <clipPath id="clip0_820_7657">
    <rect width="202" height="162" fill="white"/>
    </clipPath>
    </defs>
    </svg>
    