<svg width="169" height="183" viewBox="0 0 169 183" fill="none" xmlns="http://www.w3.org/2000/svg">
    <g clip-path="url(#clip0_677_7980)">
    <path d="M84.1531 182.981C76.0384 182.826 66.8059 183.116 57.5733 182.382C51.5789 181.9 46.4711 179.834 42.3271 175.703C30.319 163.735 18.176 151.901 6.66902 139.451C1.94674 134.316 0 128.003 0 121.247C0 105.225 0.269845 89.1834 0.655338 73.1613C0.809535 66.3084 3.56581 60.3629 8.48084 55.479C14.9378 49.0702 21.1057 42.3524 27.8133 36.2331C33.615 30.9632 38.7613 25.0176 44.8714 20.0372C48.9576 16.717 53.5835 14.9603 58.7105 14.3233C60.0983 14.1496 61.3512 14.3233 61.8523 12.4315C64.0111 4.34326 69.9477 0.75275 77.7924 0.250851C82.8231 -0.0773132 87.9116 -0.193136 92.9809 0.617623C99.3608 1.64072 103.775 5.0768 105.953 11.0031C106.974 13.7828 108.266 14.8252 111.215 14.8831C117.498 15.0183 122.799 17.9717 127.116 22.2765C138.585 33.685 149.841 45.2866 161.155 56.8496C166.61 62.4284 168.788 69.3777 168.942 76.9641C169.251 92.523 168.036 108.063 168.171 123.641C168.229 130.571 165.492 136.767 160.365 141.806C151.672 150.338 143.307 159.218 134.46 167.557C129.795 171.958 125.671 177.054 119.83 180.162C116.65 181.861 113.316 182.903 109.75 182.961C101.597 183.058 93.4242 183 84.1531 183V182.981ZM83.6905 175.047C93.135 175.047 100.845 175.047 108.555 175.047C112.564 175.047 116.13 173.638 119.175 171.147C121.796 169.005 124.244 166.65 126.634 164.275C136.04 154.913 145.331 145.454 154.775 136.15C158.38 132.598 160.307 128.332 160.365 123.409C160.519 107.985 160.346 92.5809 160.885 77.1572C161.078 71.7907 159.594 66.7331 155.739 62.7565C151.248 58.1043 146.738 53.4714 142.285 48.7806C135.713 41.8312 128.735 35.2872 122.105 28.3958C119.406 25.5774 116.188 23.9366 112.583 23.0872C110.386 22.5853 107.996 22.8363 105.683 22.817C101.43 22.7913 99.2194 20.7579 99.0524 16.717C98.8789 12.4315 96.5659 9.47807 92.3255 8.648C86.8708 7.56699 81.339 7.56699 75.8842 8.648C71.6631 9.47807 69.3309 12.4509 69.1381 16.717C68.9839 20.3461 67.0243 22.1671 63.2594 22.18C62.6426 22.18 62.0258 22.18 61.409 22.18C56.1856 22.0255 51.8295 23.9752 48.148 27.6043C44.0811 31.5809 39.9949 35.5382 35.8508 39.4569C28.353 46.5607 21.2214 54.0505 13.8777 61.3281C10.3119 64.88 8.44229 69.1847 8.40374 74.1265C8.26882 89.3958 8.40374 104.646 7.84478 119.915C7.61348 126.092 9.44457 131.768 14.4174 136.014C15.227 136.709 15.7859 137.675 16.5376 138.447C19.8529 141.883 23.2067 145.3 26.5604 148.678C27.6977 149.817 28.9698 150.087 30.1648 148.794C31.2056 147.693 30.8394 146.496 30.0299 145.473C29.3745 144.624 28.5457 143.91 27.7748 143.157C24.286 139.663 20.7588 136.208 17.3279 132.656C14.5716 129.799 12.8562 126.517 12.8755 122.367C12.9526 107.232 12.914 92.1176 12.8947 76.9835C12.8947 71.3274 14.668 66.4243 18.8891 62.5249C21.7225 59.9189 24.5752 57.3322 27.3122 54.6296C34.3281 47.6803 41.3826 40.7888 48.2059 33.6464C52.8703 28.7433 58.3443 26.6005 65.0519 26.6198C69.9862 26.6198 74.8241 27.5078 79.7584 27.4306C88.3935 27.2762 97.0285 27.6429 105.644 27.2955C112.024 27.0445 117.093 29.2838 121.199 33.8588C126.866 40.1711 132.918 46.0974 138.874 52.1008C142.787 56.0388 146.699 59.9768 150.631 63.8955C153.927 67.1771 155.932 70.9221 155.913 75.748C155.816 90.5733 155.913 105.379 155.874 120.205C155.874 125.976 154.004 130.918 149.687 135.069C139.24 145.107 128.986 155.338 118.674 165.511C118.346 165.839 118.038 166.186 117.672 166.476C114.472 169.082 110.926 170.665 106.704 170.607C91.0148 170.395 75.306 170.24 59.6165 170.047C58.6913 170.047 57.8239 169.835 56.918 169.661C53.757 169.024 51.2898 167.306 49.0732 165.067C45.9315 161.882 42.7704 158.716 39.5901 155.569C38.6842 154.681 37.6048 153.813 36.3905 154.951C35.1569 156.11 35.4268 157.422 36.4869 158.619C36.7953 158.967 37.123 159.295 37.4506 159.623C40.5731 162.827 43.5992 166.128 46.8181 169.217C49.9791 172.248 53.6606 174.217 58.1901 174.661C67.2685 175.529 76.3468 174.719 83.6712 175.066L83.6905 175.047ZM84.3651 164.777C92.7303 164.777 99.6499 164.681 106.589 164.816C109.731 164.874 112.255 163.908 114.453 161.708C125.015 151.149 135.443 140.435 146.41 130.281C149.205 127.695 150.246 124.625 150.188 120.803C150.034 108.777 150.13 96.7312 150.13 84.705C150.13 83.1607 150.034 81.5778 150.361 80.1107C151.441 75.1303 149.899 71.0572 146.391 67.5632C142.902 64.0885 139.471 60.5173 135.905 57.1198C134.633 55.9037 133.4 53.1046 131.125 55.4211C129.14 57.448 131.183 59.0695 132.532 60.4594C135.867 63.8955 139.163 67.3509 142.671 70.5939C144.887 72.6401 145.755 74.8986 145.697 77.9293C145.389 92.0983 146.025 106.287 145.196 120.456C145.022 123.409 144.406 125.61 142.228 127.733C132.205 137.539 122.375 147.52 112.255 157.21C109.943 159.43 107.668 160.434 104.507 160.318C96.219 160.009 87.9116 159.913 79.6042 159.797C74.3615 159.72 69.1189 159.604 63.8954 159.855C60.2332 160.028 57.5348 158.928 54.952 156.226C45.1797 145.975 35.2148 135.879 25.2112 125.841C23.4958 124.123 22.9946 122.386 23.0717 120.089C23.4572 105.611 22.5513 91.1138 23.5922 76.636C23.8235 73.4315 24.7294 71.2116 26.9845 69.0496C35.7737 60.6331 44.5437 52.1974 53.0245 43.4721C57.1686 39.2059 61.0235 36.735 67.6732 37.2562C80.0861 38.2021 92.6146 37.6423 105.085 37.4493C108.786 37.3914 111.504 38.4145 113.971 41.1749C117.248 44.8426 120.91 48.1822 124.379 51.6762C125.189 52.5062 126.075 53.1626 127.155 52.1974C127.984 51.4638 128.677 50.5565 127.964 49.379C127.56 48.7227 127.02 48.1629 126.499 47.6031C122.818 43.6651 118.77 40.0939 115.282 35.9629C113.74 34.129 111.523 32.8936 108.805 32.9129C101.577 32.9515 94.3686 32.7971 87.1599 32.4303C79.1802 32.0056 71.1427 32.5075 63.1437 32.2565C59.4237 32.1407 56.6096 33.5306 54.0075 35.8471C53.198 36.5613 52.4848 37.3721 51.7138 38.1249C41.7681 47.7768 32.4007 58.0271 22.108 67.3316C19.6601 69.5322 18.4073 72.4277 18.5037 75.9797C18.7157 83.373 18.6578 90.7857 18.5422 98.1983C18.4266 104.974 18.9277 111.75 18.0796 118.525C17.617 122.27 18.6386 125.861 21.4334 128.698C32.2272 139.682 43.021 150.685 53.8148 161.689C55.511 163.407 57.5155 164.14 59.9634 164.352C68.5792 165.086 77.1949 164.526 84.3844 164.738L84.3651 164.777ZM106.145 98.7195C106.145 96.8664 106.203 95.0132 106.145 93.16C105.972 87.8515 102.271 83.5854 97.3176 82.9483C90.9185 82.1376 85.5408 85.091 84.4422 90.6698C83.3628 96.1135 83.2279 101.731 84.5964 107.175C85.9071 112.367 90.745 115.205 96.3539 114.529C102.001 113.854 105.818 110.07 106.145 104.723C106.261 102.735 106.165 100.708 106.165 98.7002L106.145 98.7195ZM112.063 98.3141C112.063 102.928 112.101 107.561 112.043 112.174C112.024 114.182 113.181 114.356 114.723 114.356C116.284 114.356 117.498 114.182 117.363 112.174C117.305 111.402 117.325 110.63 117.363 109.858C117.479 107.561 116.477 104.8 117.807 103.121C119.271 101.268 122.143 102.677 124.36 102.387C124.823 102.329 125.285 102.407 125.748 102.349C130.721 101.673 133.882 98.3914 134.229 93.5268C134.614 88.2955 131.453 84.2224 126.846 83.3923C122.413 82.5816 117.98 83.0834 113.528 83.0255C112.043 83.0062 112.043 84.2803 112.043 85.3806C112.043 89.6853 112.043 94.0094 112.043 98.3141H112.063ZM57.1493 85.9597C51.9451 82.3885 46.4711 81.7515 40.6888 84.3768C36.9688 86.0755 36.7375 89.4151 36.7567 92.967C36.776 96.3065 38.0674 98.5265 41.1899 99.7619C43.6378 100.727 46.2013 101.075 48.7456 101.596C51.9066 102.233 52.215 103.256 52.0608 106.422C51.9259 109.144 49.9213 109.279 48.283 109.588C44.4859 110.302 41.1513 108.545 37.7783 107.059C37.4121 107.464 37.0459 107.754 36.8146 108.12C35.5681 109.987 35.8508 111.46 37.6626 112.541C42.6548 115.552 47.9167 115.051 53.1402 113.429C55.2218 112.773 56.6096 110.997 57.5348 108.951C59.4623 104.704 57.477 98.5072 52.1379 97.1752C49.6129 96.5575 47.1265 95.8433 44.5822 95.2448C42.0187 94.6464 42.6548 92.33 42.2886 90.7278C41.9609 89.28 43.5221 88.9132 44.6208 88.3534C46.9337 87.1758 48.9961 87.7743 51.2127 88.7395C55.1447 90.4382 55.376 90.2452 57.1493 85.9597ZM67.7311 100.882C67.7311 104.414 67.8274 107.966 67.6925 111.499C67.5961 113.776 68.5213 114.375 70.6608 114.394C72.8967 114.394 73.128 113.275 73.1087 111.518C73.0701 105.978 73.0509 100.438 73.1087 94.8974C73.128 92.9284 72.3377 90.5733 73.4942 89.0676C74.7663 87.4268 77.2142 88.3727 79.1417 88.3727C81.4353 88.3727 81.4932 87.06 81.5124 85.3613C81.5317 83.6626 81.0498 82.8711 79.1609 82.9097C73.4749 83.0062 67.8082 82.9676 62.1222 82.9097C60.3682 82.9097 59.231 83.1414 59.231 85.3613C59.231 87.5233 59.867 88.5464 62.1222 88.3148C63.1823 88.199 64.2809 88.3727 65.341 88.2955C67.1528 88.141 67.7504 88.9518 67.7118 90.7085C67.6154 94.0866 67.6925 97.4841 67.6925 100.862L67.7311 100.882Z" fill="#FE0404"/>
    <path d="M84.0374 22.1608C81.4353 22.1608 78.8139 22.0643 76.2119 22.1994C74.1302 22.2959 73.6483 21.3693 73.6291 19.4775C73.5905 14.5358 74.7855 13.1845 79.662 13.1459C83.1893 13.1266 86.7165 13.0494 90.2438 13.1845C93.7132 13.3003 96.2575 18.4931 94.3879 21.4851C93.9253 22.238 93.0965 22.1801 92.3255 22.1801C92.1713 22.1801 92.0171 22.1801 91.8629 22.1801C89.2608 22.1801 86.6394 22.1801 84.0374 22.1801V22.1608Z" fill="#FE0404"/>
    <path d="M89.5885 98.7582C89.5885 96.905 89.4728 95.0519 89.6077 93.218C89.839 90.1294 91.6316 88.4693 94.5806 88.3728C98.2813 88.2569 100.479 89.7819 100.691 93.0829C100.922 96.7699 100.903 100.496 100.691 104.183C100.536 107.155 97.3947 110.09 94.8504 109.607C91.3617 108.951 89.203 107.329 89.5306 103.854C89.6848 102.175 89.5499 100.457 89.5499 98.7775L89.5885 98.7582Z" fill="#FE0404"/>
    <path d="M122.317 97.0595C116.689 96.963 117.44 97.8124 117.402 91.8089C117.382 88.4307 117.46 88.4114 120.929 88.3535C121.835 88.3535 122.76 88.3342 123.666 88.3535C127.502 88.45 128.6 89.4152 128.581 92.6775C128.581 95.9785 127.502 96.9437 123.685 97.0595C123.223 97.0595 122.779 97.0595 122.317 97.0595Z" fill="#FE0404"/>
    </g>
    <defs>
    <clipPath id="clip0_677_7980">
    <rect width="169" height="183" fill="white"/>
    </clipPath>
    </defs>
    </svg>
    