<svg width="182" height="137" viewBox="0 0 182 137" fill="none" xmlns="http://www.w3.org/2000/svg">
    <g clip-path="url(#clip0_677_7958)">
    <path d="M118.87 68.5523C110.939 68.5523 103.009 68.2907 95.1131 68.6047C69.0087 69.5989 42.9044 68.9012 16.7826 69.0756C12.2261 69.1105 7.66961 68.5698 3.09569 68.3953C1.51308 68.3256 0.434823 67.7674 0.12178 66.1626C-0.226047 64.4008 0.782649 63.4589 2.34787 63.3193C4.487 63.1274 4.93917 61.4006 5.61743 59.9353C8.85221 52.958 12.8522 46.4865 17.9131 40.6604C25.3218 32.1655 33.9479 25.3452 44.3305 20.8273C58.0696 14.8443 71.8957 9.14031 86.0696 4.29106C88.7305 3.38401 91.4087 2.75605 94.2261 2.98281C98.5392 3.31423 102.8 2.12809 107.078 2.44207C118.313 3.2619 129.548 2.86071 140.783 2.98281C143.009 3.00025 145.026 2.66883 147.148 1.62223C154.87 -2.16297 163.304 0.802393 167.739 8.63445C169.391 11.5475 170.557 14.6873 171.513 17.8794C171.739 18.6644 171.844 19.5365 171.722 20.3389C171.444 22.3275 169.722 23.095 168 22.0658C166.748 21.3158 166.191 20.0424 165.687 18.7167C164.748 16.2572 163.826 13.7628 162.713 11.3905C160.435 6.48892 156.522 4.72715 151.461 6.54125C147.426 8.00649 143.478 9.68105 139.113 9.87293C138.417 9.90782 137.809 10.2567 137.252 10.7102C130.296 16.3444 128.626 27.0372 132.817 33.2993C133.844 34.8344 135.026 36.1252 136.522 37.1892C143.6 42.178 146.104 49.4868 146.783 57.72C146.887 58.9759 146.939 60.2319 146.957 61.4703C146.957 62.7786 147.357 63.6507 148.852 63.5112C150.539 63.3717 150.974 64.0868 150.783 65.7439C150.609 67.3313 150.348 68.3081 148.417 68.3081C141.757 68.3081 135.096 68.4826 128.417 68.5523C125.217 68.5872 122.017 68.5523 118.835 68.5523H118.87ZM118.07 52.1381C114.122 42.0384 106.87 36.9973 100.348 35.5146C95.7914 34.468 91.2348 34.8867 86.6957 34.8169C74.4348 34.6425 62.8174 37.2241 52.087 43.3467C47.8261 45.7888 43.6174 48.3181 39.4435 52.1381H118.07Z" fill="#FE0404"/>
    <path d="M87.4261 104.538C111.617 104.538 135.791 104.538 159.983 104.538C163.878 104.538 167.722 105.044 171.478 106.038C177.791 107.73 181.357 112.318 181.896 118.527C182.974 130.912 175.617 135.256 165.861 136.389C161.426 136.913 157.043 136.267 152.661 136.389C110.296 137.506 67.913 136.738 25.5478 136.808C19.0609 136.808 12.5217 136.581 6.03478 136.076C2.5913 135.814 0.173907 133.459 0.0173855 130.354C-0.139136 127.406 2.71304 124.197 5.89565 123.813C6.85217 123.691 7.84347 123.778 8.81739 123.778C34.8174 123.778 60.8 123.569 86.8 123.9C95.3913 124.005 104 124.441 112.591 124.284C119.096 124.162 125.6 123.586 132.122 123.795C133.965 123.865 134.487 123.045 134.539 121.318C134.678 117.429 134.452 117.097 130.47 117.097C89.4609 117.097 48.4522 117.097 7.46086 117.097C3.26956 117.097 1.82608 116.225 0.626081 113.068C-0.782614 109.37 1.46086 105.497 5.3913 105.131C8.97391 104.817 12.5739 104.555 16.1565 104.555C39.9304 104.503 63.6869 104.538 87.4609 104.538H87.4261ZM149.861 120.481C149.791 118.126 148.991 117.62 145.478 117.673C142.643 117.708 141.704 118.545 141.826 120.935C141.93 122.906 143.078 123.604 146.122 123.516C149.217 123.429 149.93 122.836 149.861 120.499V120.481Z" fill="#FE0404"/>
    </g>
    <defs>
    <clipPath id="clip0_677_7958">
    <rect width="182" height="137" fill="white"/>
    </clipPath>
    </defs>
    </svg>
    